<svg width="236" height="66" fill="none" xmlns="http://www.w3.org/2000/svg"><path d="M123.594 18.793v37.48c0 .21-.14.348-.35.348h-20.628c-6.328 0-11.468-5.106-11.468-11.394V18.723c0-.208.14-.347.35-.347h9.195c.21 0 .35.139.35.347V44.36a2.425 2.425 0 0 0 2.447 2.431h9.895c.21 0 .35-.139.35-.347v-27.65c0-.209.139-.348.349-.348h9.195c.175 0 .315.14.315.348ZM89.645 56.586h-38.53a.343.343 0 0 1-.314-.486l8.846-23.274c.035-.139.175-.208.314-.208h9.825c.245 0 .42.243.315.486l-5.035 13.2c-.07.243.07.486.315.486h9.964c.245 0 .42-.243.315-.486L65.206 18.862c-.07-.243.07-.486.314-.486h9.825c.14 0 .28.104.315.208L89.96 56.1a.343.343 0 0 1-.315.486Zm88.806-38.836c-10.979 0-19.894 8.858-19.894 19.766 0 10.907 8.915 19.765 19.894 19.765 10.978 0 19.894-8.858 19.894-19.765 0-10.908-8.951-19.765-19.894-19.765Zm0 29.735c-5.524 0-10.035-4.48-10.035-9.97 0-5.488 4.511-9.969 10.035-9.969s10.034 4.481 10.034 9.97c-.035 5.488-4.51 9.97-10.034 9.97Zm55.626-17.715v26.469c0 .208-.14.347-.35.347h-9.16c-.21 0-.35-.139-.35-.347V30.603a2.446 2.446 0 0 0-2.447-2.431h-9.895c-.209 0-.349.139-.349.347v27.65c0 .209-.14.348-.35.348h-9.195c-.21 0-.35-.14-.35-.348V18.723c0-.208.14-.347.35-.347h20.628c6.328 0 11.468 5.106 11.468 11.393Zm-78.072 13.2c0 7.503-6.433 13.616-13.985 13.616h-13.391c-.21 0-.35-.139-.35-.347v-9.101c0-.209.14-.347.35-.347h13.53c2.098 0 3.916-1.598 3.986-3.683.035-1.076-.35-2.119-1.119-2.883l-10.069-10.212c-2.063-2.015-3.252-4.794-3.252-7.816 0-1.772.455-2.78.979-3.648a.368.368 0 0 1 .315-.173h8.146c.56 0 .874.59.595 1.077-.28.451-.42 1.007-.42 1.598 0 .416.07.833.245 1.18.07.209.175.383.28.556 0 .035.035.035.035.07.105.139.244.312.349.451.14.174.315.313.42.487l9.44 9.587c2.517 2.501 3.916 5.94 3.916 9.587Z" fill="#FAFAFA"/><path d="M44.892 42.796c0 11.776-9.614 21.328-21.467 21.328-11.852 0-21.467-9.552-21.467-21.328 0-1.876.385-3.856 1.084-5.801a24.566 24.566 0 0 1 1.398-3.127l.315-.52 18.04-31.125a.722.722 0 0 1 1.225 0l18.076 31.09.314.555a24.527 24.527 0 0 1 1.399 3.127c.699 1.945 1.084 3.925 1.084 5.8Z" fill="#E20613"/><path d="M8.916 42.31a.35.35 0 0 0-.35.347c.175 7.746 6.608 13.999 14.44 13.999 7.831 0 14.264-6.253 14.44-14 0-.208-.14-.347-.35-.347h-5.07a.35.35 0 0 0-.35.348c-.174 4.585-3.985 8.267-8.67 8.267-4.65 0-8.496-3.682-8.671-8.267 0-.174-.175-.348-.35-.348h-5.07Zm13.67-17.334-3.67 7.607c-.106.209.069.452.279.452h7.622a.307.307 0 0 0 .28-.452l-7.203-13.86a.307.307 0 0 1 .28-.451h5.909c.104 0 .244.07.28.173L36.99 38.35c.105.209-.035.487-.28.487H9.335a.307.307 0 0 1-.28-.452l7.098-13.651c.07-.105.175-.174.28-.174h5.873c.21-.035.385.208.28.417Z" fill="#FAFAFA"/></svg>