<svg width="28" height="28" fill="none" xmlns="http://www.w3.org/2000/svg"><path d="M10 3H4.75A1.75 1.75 0 0 0 3 4.75V10a1.75 1.75 0 0 0 1.75 1.75H10A1.75 1.75 0 0 0 11.75 10V4.75A1.75 1.75 0 0 0 10 3Zm0 7H4.75V4.75H10V10Zm12.25-7H17a1.75 1.75 0 0 0-1.75 1.75V10A1.75 1.75 0 0 0 17 11.75h5.25A1.75 1.75 0 0 0 24 10V4.75A1.75 1.75 0 0 0 22.25 3Zm0 7H17V4.75h5.25V10ZM10 15.25H4.75A1.75 1.75 0 0 0 3 17v5.25A1.75 1.75 0 0 0 4.75 24H10a1.75 1.75 0 0 0 1.75-1.75V17A1.75 1.75 0 0 0 10 15.25Zm0 7H4.75V17H10v5.25Zm12.25-7H17A1.75 1.75 0 0 0 15.25 17v5.25A1.75 1.75 0 0 0 17 24h5.25A1.75 1.75 0 0 0 24 22.25V17a1.75 1.75 0 0 0-1.75-1.75Zm0 7H17V17h5.25v5.25Z" fill="#FF9128"/></svg>