<svg width="45" height="45" fill="none" xmlns="http://www.w3.org/2000/svg"><g clip-path="url(#a)" fill="#fff"><path d="M11.194 17.015 10.074 15l4.478-2.687-3.358-5.597-4.478 2.91-1.343-2.014 6.493-3.806 5.82 9.179"/><path d="M23.06 45c-2.015 0-4.254-.672-6.493-2.015-3.806-2.239-7.612-6.045-10.522-10.746-6.716-10.522-6.94-20.597-.672-24.627l1.12 2.015c-5.15 3.134-4.702 12.09 1.12 21.492 2.686 4.478 6.268 8.06 9.626 10.075 2.463 1.343 6.045 2.463 9.18.672l4.253-2.687-2.91-5.597-4.478 2.687c-2.687 1.567-6.269.671-7.836-1.791L8.284 22.836c-1.567-2.687-.896-6.045 1.79-7.836l1.12 2.015c-1.567.896-2.015 2.91-1.12 4.478l7.165 11.641c.895 1.568 3.358 2.015 4.925 1.12l6.27-3.806 5.82 9.179-6.269 3.806C26.418 44.553 24.851 45 23.06 45Zm8.507-19.7-2.015-.672c.896-2.463.448-4.925-.895-6.94-1.343-2.24-3.806-3.582-6.269-3.806l.224-2.24c3.358.225 6.269 2.016 8.06 4.702 1.567 2.687 2.015 6.045.895 8.956Z"/><path d="m37.836 26.642-2.239-.672c1.12-4.03.448-8.284-1.79-11.866-2.24-3.582-6.046-5.82-10.523-6.492l.224-2.239c4.925.672 9.403 3.358 12.09 7.388 2.686 4.254 3.581 9.18 2.238 13.88Z"/><path d="m43.209 27.985-2.239-.672c1.567-5.597.448-11.417-2.463-16.119-3.134-4.925-8.283-8.06-14.104-8.955L24.627 0c6.492.896 12.09 4.478 15.671 9.85 3.582 5.374 4.702 11.866 2.91 18.135Z"/></g><defs><clipPath id="a"><path fill="#FAFAFA" d="M0 0h45v45H0z"/></clipPath></defs></svg>