<svg width="45" height="38" fill="none" xmlns="http://www.w3.org/2000/svg"><g clip-path="url(#a)"><mask id="b" fill="#fff"><path fill-rule="evenodd" clip-rule="evenodd" d="M16.254.836C6.894 6.848 1.694 13.846.653 21.83c-1.62 12.427 9.494 18.51 15.125 13.045 5.631-5.465 2.256-12.403-1.821-14.3-4.078-1.897-6.571-1.235-6.136-3.77.435-2.535 6.235-9.56 11.332-12.831a.932.932 0 0 0 .142-1.268l-1.26-1.64c-.548-.711-1.072-.684-1.78-.23m24.645 0c-9.36 6.012-14.56 13.01-15.6 20.993-1.622 12.427 9.492 18.51 15.123 13.045 5.631-5.465 2.256-12.403-1.822-14.3-4.08-1.897-6.572-1.235-6.136-3.77.435-2.535 6.236-9.56 11.333-12.831a.932.932 0 0 0 .14-1.268l-1.259-1.64C42.132.354 41.608.38 40.9.835"/></mask><path d="m.653 21.829 1.934.252-1.934-.252Zm18.5-17.856 1.054 1.64.11-.07.101-.086-1.265-1.484Zm.142-1.268 1.561-1.168-.007-.01-.008-.01-1.546 1.188Zm-1.26-1.64L19.58-.124l-1.546 1.189Zm7.264 20.764 1.934.252-1.934-.252Zm7.166-5.025-1.922-.33 1.922.33ZM43.798 3.973l1.054 1.64.112-.071.1-.087-1.266-1.482Zm.14-1.268 1.561-1.17-.007-.009-.007-.01-1.546 1.189Zm-1.259-1.64 1.547-1.188-.001-.001-1.546 1.189ZM16.254.836 15.2-.804C5.55 5.392-.14 12.828-1.28 21.575l1.933.253 1.934.252c.94-7.22 5.65-13.779 14.721-19.604L16.254.837ZM.653 21.83l-1.934-.252c-.893 6.854 1.72 12.211 5.629 15.06 3.852 2.809 9.132 3.184 12.788-.363l-1.358-1.4-1.358-1.4c-1.975 1.918-5.068 1.985-7.775.011-2.652-1.933-4.785-5.831-4.058-11.404L.653 21.83Zm15.125 13.045 1.358 1.4c3.32-3.221 4.078-7.034 3.266-10.351-.78-3.193-3.013-5.903-5.623-7.116l-.822 1.768-.823 1.768c1.469.683 2.962 2.39 3.48 4.507.488 1.992.118 4.381-2.194 6.625l1.358 1.4Zm-1.821-14.3.822-1.768a22.589 22.589 0 0 0-2.993-1.13c-.932-.284-1.442-.407-1.928-.582-.475-.17-.388-.223-.26-.047.195.267.083.444.145.087l-1.922-.33-1.922-.33c-.156.91-.119 1.956.548 2.87.601.825 1.484 1.201 2.089 1.419.592.213 1.443.44 2.111.643.75.23 1.578.514 2.487.937l.823-1.768Zm-6.136-3.77 1.922.33c.037-.217.287-.848.956-1.89.624-.972 1.49-2.116 2.516-3.305 2.067-2.396 4.653-4.824 6.992-6.325l-1.054-1.641L18.1 2.332c-2.758 1.77-5.621 4.49-7.838 7.059-1.115 1.292-2.099 2.584-2.845 3.745-.7 1.09-1.338 2.288-1.518 3.338l1.922.33ZM19.153 3.973l1.265 1.484a2.882 2.882 0 0 0 .995-1.874l-1.938-.216-1.938-.217c.029-.257.154-.494.351-.661l1.265 1.484Zm.322-.606 1.938.216a2.883 2.883 0 0 0-.557-2.046l-1.561 1.168-1.562 1.168a1.018 1.018 0 0 1-.196-.723l1.938.217Zm-.18-.662 1.546-1.189-1.26-1.64-1.547 1.189-1.546 1.188 1.26 1.64 1.547-1.188Zm-1.26-1.64L19.58-.124c-.453-.59-1.165-1.214-2.204-1.305-.945-.083-1.711.326-2.173.622L16.254.835l1.052 1.642c.1-.065.127-.07.094-.058a1.057 1.057 0 0 1-.848-.126c-.093-.06-.11-.1-.063-.04l1.545-1.188ZM40.9.836l-1.053-1.64c-9.651 6.197-15.342 13.633-16.482 22.38l1.934.253 1.934.252c.94-7.22 5.65-13.779 14.721-19.604L40.9.837ZM25.3 21.83l-1.934-.252c-.895 6.854 1.72 12.211 5.627 15.06 3.852 2.809 9.132 3.184 12.788-.363l-1.358-1.4-1.358-1.4c-1.975 1.918-5.068 1.985-7.775.011-2.651-1.933-4.784-5.831-4.057-11.404l-1.934-.252Zm15.123 13.045 1.358 1.4c3.32-3.221 4.078-7.034 3.266-10.351-.781-3.193-3.014-5.903-5.624-7.117l-.822 1.768-.823 1.769c1.47.683 2.963 2.39 3.481 4.507.487 1.992.118 4.381-2.194 6.625l1.358 1.4Zm-1.822-14.3.822-1.768a22.619 22.619 0 0 0-2.994-1.13c-.932-.284-1.442-.407-1.928-.582-.474-.17-.387-.223-.259-.047.194.267.083.445.144.087l-1.921-.33-1.922-.33c-.156.91-.12 1.956.547 2.87.601.825 1.484 1.201 2.089 1.419.592.213 1.443.44 2.112.643.75.23 1.578.514 2.487.937l.823-1.768Zm-6.136-3.77 1.921.33c.038-.217.288-.848.957-1.89.624-.971 1.49-2.116 2.516-3.305 2.068-2.396 4.654-4.824 6.993-6.325l-1.054-1.641-1.053-1.641c-2.758 1.77-5.622 4.49-7.838 7.059-1.115 1.292-2.1 2.584-2.845 3.745-.7 1.09-1.34 2.288-1.52 3.338l1.923.33ZM43.798 3.973l1.267 1.482a2.882 2.882 0 0 0 .992-1.874l-1.938-.215-1.938-.214c.029-.257.154-.494.35-.662l1.267 1.483Zm.321-.607 1.938.215a2.882 2.882 0 0 0-.558-2.046l-1.56 1.17-1.56 1.169a1.018 1.018 0 0 1-.198-.722l1.938.214Zm-.18-.661 1.546-1.188-1.26-1.64-1.546 1.188-1.546 1.188 1.26 1.64 1.546-1.188Zm-1.26-1.64 1.546-1.189c-.453-.589-1.165-1.214-2.204-1.305-.945-.084-1.712.326-2.174.623L40.9.834l1.053 1.642c.1-.064.127-.069.094-.057a1.058 1.058 0 0 1-.85-.125c-.093-.062-.11-.1-.063-.04l1.545-1.19Z" fill="#FF9128" mask="url(#b)"/></g><defs><clipPath id="a"><path fill="#fff" d="M0 0h44.2v37.017H0z"/></clipPath></defs></svg>