<svg width="56" height="56" fill="none" xmlns="http://www.w3.org/2000/svg"><path d="M46.813 10.5V21a1.313 1.313 0 0 1-2.626 0v-7.332l-10.01 10.01a1.313 1.313 0 0 1-1.855-1.855l10.01-10.01H35a1.313 1.313 0 0 1 0-2.626h10.5a1.313 1.313 0 0 1 1.313 1.313Zm-24.99 21.822-10.01 10.01V35a1.313 1.313 0 0 0-2.626 0v10.5a1.313 1.313 0 0 0 1.313 1.313H21a1.313 1.313 0 0 0 0-2.626h-7.332l10.01-10.01a1.313 1.313 0 0 0-1.855-1.855ZM45.5 33.688A1.313 1.313 0 0 0 44.187 35v7.333l-10.01-10.01a1.313 1.313 0 0 0-1.855 1.855l10.01 10.01H35a1.313 1.313 0 0 0 0 2.624h10.5a1.313 1.313 0 0 0 1.313-1.312V35a1.313 1.313 0 0 0-1.313-1.313ZM13.668 11.814H21a1.313 1.313 0 0 0 0-2.626H10.5A1.313 1.313 0 0 0 9.187 10.5V21a1.313 1.313 0 0 0 2.626 0v-7.332l10.01 10.01a1.313 1.313 0 0 0 1.854-1.855l-10.01-10.01Z" fill="#fff"/></svg>