<svg width="315" height="18" fill="none" xmlns="http://www.w3.org/2000/svg"><path d="M0 13.2V8.6l8-.2v-3H.4V3.8H8l1.8 1.8V15h-8L0 13.2Zm1.8-3v3.2H8V9.8l-6.2.4ZM12.992 15V3.8h1.8v4.8h6.4V3.8h1.8V15h-1.8v-4.8h-6.4V15h-1.8Zm18.502 0h-1.8V5.4h-4.3V3.8h10.4v1.6h-4.3V15Zm17.292 0h-1.8V5.66L40.546 15h-2.36V3.8h1.8v9.34l6.44-9.34h2.36V15Zm3.208 0V3.8h1.8v4.58h3.88l3.08-4.58h2.08l-3.54 5.16 3.7 6.04h-2.04l-3.02-5.02h-4.14V15h-1.8Zm12.712-1.8V5.6l1.8-1.8h6.2l1.8 1.8v7.6l-1.8 1.8h-6.2l-1.8-1.8Zm1.8.2h6.2v-8h-6.2v8Zm11.092 4.4v-14h8.3l1.8 1.8v7.6l-1.8 1.8h-6.5v2.8h-1.8Zm8.3-12.4h-6.5v8h6.5v-8ZM90.8 17.8v-14h8.3l1.8 1.8v7.6L99.1 15h-6.5v2.8h-1.8Zm8.3-12.4h-6.5v8h6.5v-8Zm4.802 7.8V5.6l1.8-1.8h6.2l1.8 1.8v7.6l-1.8 1.8h-6.2l-1.8-1.8Zm1.8.2h6.2v-8h-6.2v8Zm20.593 0-1.6 1.6h-8.4v-1.6h8.2v-3.32h-7.2v-1.6h6.8V5.4h-7.6V3.8h7.8l1.6 1.6v2.9l-1.14.86 1.54 1.2v3.04Zm13.696 1.6h-1.8V5.66l-6.44 9.34h-2.36V3.8h1.8v9.34l6.44-9.34h2.36V15Zm13.808 0h-1.8V5.66l-6.44 9.34h-2.36V3.8h1.8v9.34l6.44-9.34h2.36V15Zm-3.14-15h1.84l-1.4 2.4h-5.2l-1.4-2.4h1.84l.66 1.1h3l.66-1.1Zm6.348 15V3.8h1.8v4.8h6.4V3.8h1.8V15h-1.8v-4.8h-6.4V15h-1.8Zm13.002-1.8V8.6l8-.2v-3h-7.6V3.8h7.6l1.8 1.8V15h-8l-1.8-1.8Zm1.8-3v3.2h6.2V9.8l-6.2.4Zm13.093-.4h5.9V5.4h-5.9v4.4Zm-1.8.2V5.4l1.6-1.6h7.9V15h-1.8v-3.6h-4.98l-1.78 3.6h-1.94l2.06-3.94-1.06-1.06Zm18.587 3.2V5.6l1.8-1.8h6.2l1.8 1.8v7.6l-1.8 1.8h-6.2l-1.8-1.8Zm1.8.2h6.2v-8h-6.2v8Zm12.892 0h6.5v-7h-6.5v7Zm0 1.6-1.8-1.8V2.8l1.8-1.8h8v1.6h-8v2.2h6.7l1.6 1.6v6.8l-1.8 1.8h-6.5Zm11.403 2.8v-14h8.3l1.8 1.8v7.6l-1.8 1.8h-6.5v2.8h-1.8Zm8.3-12.4h-6.5v8h6.5v-8Zm4.702 7.8V8.6l8-.2v-3h-7.6V3.8h7.6l1.8 1.8V15h-8l-1.8-1.8Zm1.8-3v3.2h6.2V9.8l-6.2.4Zm12.992 3.2h6.5v-7h-6.5v7Zm0 1.6-1.8-1.8V2.8l1.8-1.8h8v1.6h-8v2.2h6.7l1.6 1.6v6.8l-1.8 1.8h-6.5Zm11.302-1.8V5.6l1.8-1.8h6.2l1.8 1.8v7.6l-1.8 1.8h-6.2l-1.8-1.8Zm1.8.2h6.2v-8h-6.2v8Zm16.393 1.6h-1.8V5.4h-4.3V3.8h10.4v1.6h-4.3V15Zm6.691 0V3.8h1.8v4.58h3.88l3.08-4.58h2.08l-3.54 5.16 3.7 6.04h-2.04l-3.02-5.02h-4.14V15h-1.8Zm13.002-1.8V8.6l8-.2v-3h-7.6V3.8h7.6l1.8 1.8V15h-8l-1.8-1.8Zm1.8-3v3.2h6.2V9.8l-6.2.4Z" fill="#FF9128"/></svg>