<svg width="200" height="185" fill="none" xmlns="http://www.w3.org/2000/svg"><path d="m28.528 59.455-12.978-8.29 1.682-2.633 5.117 3.268 3.245-5.08-5.117-3.268 1.682-2.633 12.978 8.29-1.682 2.633-5.488-3.506-3.245 5.08 5.488 3.506-1.682 2.633Zm9.458-13.803L26.796 35.07l7.377-7.801 1.918 1.814-5.23 5.53 2.622 2.48 4.474-4.732 1.854 1.754-4.474 4.731 2.877 2.721 5.381-5.69 1.919 1.813-7.528 7.96Zm15.119-21.095 4.793-2.957-3.673-5.954-4.793 2.957 3.673 5.954Zm3.687-10.701 3.858 6.254-.775 3.27-5.43 3.349 1.732 2.809-2.659 1.64-8.085-13.107 8.09-4.99 3.269.775Zm20.231 5.716-2.959 1.002-2.067-6.106-2.146.727-.517 6.98-3.355 1.136.849-8.88-5.475-5.812 3.313-1.122 4.518 5.044 1.938-.657-1.996-5.897 2.959-1.002 1.996 5.898 1.938-.656.504-6.744 3.334-1.13-.818 7.943 6.07 6.538-3.376 1.143-4.651-5.23-2.126.72 2.067 6.105ZM87.46 16.64 89.576.97l6.571-.623 5.023 14.993-3.263.31-1.099-3.432-5.65.536-.435 3.577-3.263.309Zm3.935-6.274 4.731-.448-2.193-6.82-1.665.158-.873 7.11Zm16.911-3.779 5.649.552.366-3.744-5.649-.552-.366 3.744Zm-.635 6.503 6.043.59.413-4.225-6.044-.59-.412 4.225Zm9.828-9.65-.378 3.876-1.305.911 1.505 1.562-.436 4.466-2.5 2.055-10.072-.984L105.81 0l9.635.941 2.054 2.5Zm3.632 14.01 4.265-14.797 10.316 2.973-.731 2.537-7.314-2.108-1 3.467 6.258 1.803-.707 2.453-6.257-1.804-1.097 3.805 7.525 2.17-.731 2.536-10.527-3.035Zm25.815 10.362-2.743-1.402 5.107-9.99-10.729 7.117-2.919-1.492 7.009-13.713 2.743 1.402-5.107 9.99 10.729-7.116 2.919 1.492-7.009 13.712Zm4.503-19.589 2.801 1.432-2.693 1.885-5.407-2.764-.049-3.286 2.801 1.432-.494 1.353 2.233 1.141.808-1.193Zm3.746 18.683 1.778-2.352 4.563 3.449-1.778 2.352-4.563-3.45Zm4.21 10.248 11.189-10.582 2.146 2.27-4.523 4.278 1.829 1.934 6.836-1.832 2.403 2.541-8.086 2.016-2.876 8.805-2.403-2.541 2.31-6.939-1.996-2.11-4.683 4.43-2.146-2.27Zm10.503 11.32 14.924-5.226 3.537 5.573-11.08 11.28-1.757-2.767 2.56-2.537-3.042-4.792-3.385 1.237-1.757-2.768Zm7.377.66 2.546 4.012 5.082-5.05-.897-1.411-6.731 2.449Zm-.385 75.484 12.977 8.29-1.681 2.633-5.117-3.269-3.246 5.08 5.117 3.269-1.681 2.632-12.978-8.29 1.682-2.633 5.487 3.506 3.246-5.08-5.488-3.506 1.682-2.632Zm-9.458 13.803 11.189 10.581-7.377 7.8-1.918-1.814 5.23-5.53-2.621-2.479-4.475 4.731-1.854-1.753 4.475-4.732-2.878-2.721-5.381 5.691-1.918-1.814 7.528-7.96Zm-15.119 21.094-4.794 2.957 3.673 5.954 4.793-2.956-3.672-5.955Zm-3.687 10.701-3.858-6.254.775-3.269 5.43-3.35-1.733-2.808 2.659-1.64 8.085 13.107-8.089 4.989-3.269-.775Zm-20.232-5.716 2.959-1.002 2.067 6.106 2.147-.727.516-6.98 3.355-1.136-.848 8.881 5.475 5.811-3.314 1.122-4.518-5.043-1.938.656 1.997 5.897-2.959 1.002-1.997-5.897-1.938.656-.504 6.744-3.334 1.128.819-7.941-6.07-6.539 3.376-1.143 4.651 5.23 2.125-.719-2.067-6.106Zm-10.436 2.932-2.117 15.67-6.57.623-5.024-14.993 3.264-.309 1.098 3.431 5.651-.535.434-3.577 3.264-.31Zm-3.936 6.274-4.731.448 2.194 6.82 1.664-.158.873-7.11Zm-16.91 3.779-5.65-.552-.365 3.745 5.649.551.366-3.744Zm.635-6.503-6.043-.59-.413 4.226 6.043.59.413-4.226Zm-9.829 9.65.379-3.875 1.305-.912-1.506-1.561.437-4.467 2.5-2.055 10.071.984-1.497 15.327-9.634-.941-2.055-2.5Zm-3.631-14.01-4.266 14.797-10.316-2.973.731-2.537 7.315 2.108.999-3.466-6.257-1.804.707-2.452 6.257 1.803 1.097-3.805-7.526-2.169.731-2.537 10.528 3.035ZM58.482 156.26l2.742 1.402-5.106 9.99 10.729-7.116 2.918 1.491-7.009 13.713-2.742-1.402 5.106-9.99-10.728 7.116-2.92-1.492 7.01-13.712Zm-4.503 19.589-2.801-1.432 2.693-1.885 5.406 2.764.05 3.287-2.801-1.432.494-1.354-2.234-1.141-.807 1.193Zm-3.747-18.682-1.777 2.352-4.563-3.449 1.777-2.352 4.563 3.449Zm-4.209-10.248L34.833 157.5l-2.146-2.27 4.524-4.278-1.83-1.934-6.835 1.832-2.404-2.541 8.086-2.015 2.876-8.806 2.404 2.541-2.31 6.939 1.995 2.11 4.684-4.429 2.146 2.27ZM35.52 135.598l-14.924 5.226-3.538-5.572 11.08-11.281 1.757 2.767-2.56 2.537 3.043 4.792 3.384-1.236 1.757 2.767Zm-7.377-.66-2.547-4.011-5.081 5.049.896 1.412 6.732-2.45Z" fill="#B9B9B9"/><path d="M.5 92.719a.79.79 0 0 1 .02-.162c.008-.04.02-.085.032-.13.025-.09.06-.204.102-.335.086-.265.21-.62.362-1.038.303-.838.722-1.941 1.19-3.109l1.65-4.202.074-.19.186-.083.911-.41.003-.001c.84-.37 1.68-1.291 2.03-2.27.1-.29.228-.643.557-.844.162-.098.335-.14.498-.16.16-.02.346-.023.547-.023.785 0 2.043.163 3.305.393 1.267.231 2.584.538 3.494.84 3.833 1.275 7.835 3.82 10.52 6.73.725.764 1.583 1.835 2.26 2.768.34.468.639.91.856 1.266.107.177.2.34.266.481.034.07.065.142.088.212a.85.85 0 0 1 .049.267c0 .097-.029.176-.036.197a1.02 1.02 0 0 1-.04.096c-.026.054-.06.116-.097.18-.074.128-.178.295-.3.485-.246.38-.58.876-.94 1.395l-.005.008-.406-.293.405.293c-3.742 5.189-9.192 8.687-15.545 9.918-.97.193-2.113.449-2.538.555-.465.115-1.157.209-1.553.209-.283 0-.64-.017-.923-.286a1.308 1.308 0 0 1-.28-.417 4.738 4.738 0 0 1-.185-.508l-.004-.012c-.284-.978-1.072-1.875-2.002-2.29a2.58 2.58 0 0 1-.635-.356c-.215-.177-.388-.406-.566-.724-.343-.612-.782-1.698-1.598-3.735l-.661-1.65a99.373 99.373 0 0 1-.543-1.41 46.522 46.522 0 0 1-.374-1.023c-.045-.13-.083-.24-.11-.327a1.49 1.49 0 0 1-.061-.25L.5 92.746v-.027Zm3.18 3.805 1.537 3.941.789.409.004.002c.6.319 1.007.55 1.339.879.331.329.563.735.884 1.33l.002.003c.158.297.274.464.393.569.102.091.233.158.469.188.253.032.61.018 1.148-.055a35.024 35.024 0 0 0 2.095-.376c4.508-.908 8.2-2.846 11.474-5.991v-.001a29.461 29.461 0 0 0 2.646-2.94c.372-.475.68-.906.892-1.246.107-.17.183-.31.232-.416.02-.045.031-.077.038-.096-.006-.017-.012-.042-.025-.075a4.243 4.243 0 0 0-.176-.365 11.107 11.107 0 0 0-.614-1.008c-.637-.921-1.701-2.118-2.848-3.24-1.148-1.125-2.348-2.144-3.24-2.72-3.261-2.095-7.35-3.551-10.754-3.845l-1.225-.102-.579.997-.005.008-.005.009c-.617.976-1.11 1.5-2.01 1.983l-.002.002-.9.475L3.7 88.722v.002l-1.555 3.868 1.535 3.932Zm195.747-3.805c0-.07-.014-.134-.02-.162a2.22 2.22 0 0 0-.032-.13 8.18 8.18 0 0 0-.103-.335c-.086-.265-.209-.62-.361-1.038a101.54 101.54 0 0 0-1.19-3.109l-1.65-4.202-.074-.19-.186-.083-.912-.41-.003-.001c-.839-.37-1.68-1.291-2.03-2.27-.1-.29-.227-.643-.556-.844a1.24 1.24 0 0 0-.498-.16 4.575 4.575 0 0 0-.547-.023c-.786 0-2.043.163-3.305.393-1.267.231-2.584.538-3.494.84h-.001c-3.832 1.275-7.834 3.82-10.52 6.73-.724.764-1.583 1.835-2.259 2.768-.34.468-.639.91-.856 1.266a5.54 5.54 0 0 0-.267.481c-.033.07-.064.142-.087.212a.838.838 0 0 0-.049.267.58.58 0 0 0 .036.197c.013.035.027.069.04.096.026.054.06.116.097.18.074.128.178.295.3.485.246.38.58.876.94 1.395l.005.008.406-.293-.405.293c3.742 5.189 9.191 8.687 15.545 9.918.97.193 2.113.449 2.538.555.465.115 1.157.209 1.552.209.284 0 .64-.017.923-.286.13-.123.216-.272.282-.417.065-.145.124-.317.184-.508l.004-.012c.284-.978 1.072-1.875 2.002-2.29a2.58 2.58 0 0 0 .635-.356c.215-.177.388-.406.566-.724.343-.612.781-1.698 1.598-3.735l.661-1.65c.203-.519.387-.997.543-1.41.155-.413.283-.763.374-1.023.045-.13.082-.24.109-.327.021-.065.053-.168.062-.25l.003-.028v-.027Zm-3.18 3.805-1.537 3.941-.789.409-.004.002c-.599.319-1.007.55-1.339.879-.332.329-.563.735-.885 1.33l-.002.003c-.157.297-.273.464-.392.569-.103.091-.233.158-.469.188-.253.032-.611.018-1.148-.055a35.098 35.098 0 0 1-2.095-.376c-4.509-.908-8.2-2.846-11.474-5.991v-.001a29.406 29.406 0 0 1-2.646-2.94 14.96 14.96 0 0 1-.893-1.246 3.883 3.883 0 0 1-.231-.416c-.021-.045-.031-.077-.038-.096.005-.017.012-.042.025-.075.038-.093.098-.217.176-.365.156-.294.374-.655.614-1.008.637-.921 1.701-2.118 2.848-3.24 1.148-1.125 2.347-2.144 3.24-2.72 3.261-2.095 7.35-3.551 10.754-3.845l1.225-.102.579.997.005.008.004.009c.618.976 1.11 1.5 2.01 1.983l.003.002.9.475 1.539 3.879.001.002 1.554 3.868-1.535 3.932Z" fill="#FF9128" stroke="#FF9128"/></svg>