<svg xmlns="http://www.w3.org/2000/svg" viewBox="0 0 500 196.268" style="enable-background:new 0 0 499.9999695 196.2681274" xml:space="preserve"><path style="fill:#ffdd2d" d="M477.99 196.268H22.01c-12.156 0-22.01-9.854-22.01-22.01V22.01C0 9.854 9.854 0 22.01 0h455.98C490.146 0 500 9.854 500 22.01v152.248c0 12.156-9.854 22.01-22.01 22.01z"/><path style="fill:#fff" d="M66.086 47.691h110.057v55.351a39.72 39.72 0 0 1-19.857 34.397l-35.171 20.31-35.171-20.31a39.72 39.72 0 0 1-19.858-34.397v-55.35z"/><path style="fill-rule:evenodd;clip-rule:evenodd;fill:#333" d="M96.29 76.824v17.215c2.355-2.658 6.635-4.458 11.529-4.458h5.318v20.013c0 5.324-1.446 9.984-3.593 12.548h23.133c-2.141-2.566-3.585-7.22-3.585-12.538V89.581h5.319c4.894 0 9.174 1.8 11.528 4.458V76.824H96.29z"/><path style="fill:#333" d="M202.093 122.14V76.826h46.026v10.357h-32.302v6.474h15.989c11.328 0 19.744 2.59 19.744 14.24 0 11.653-8.416 14.243-19.744 14.243h-29.713zm13.724-18.126v7.767h16.053c4.662 0 5.761-.904 5.761-3.884 0-2.977-1.1-3.883-5.76-3.883h-16.054zm111.711 1.294v16.832h-13.724V76.826h13.724v16.508h22.462V76.826h13.724v45.314H349.99v-16.832h-22.462zm58.298-.258v17.09h-13.724V76.826h13.724v16.896h8.22l14.307-16.896h15.536l-17.93 21.167v.843l18.836 23.304H407.77l-13.787-17.09h-8.157zm-93.869 10.422H270.53l-2.395 6.668h-14.371l17.932-45.314h19.808l17.866 45.314h-15.018l-2.395-6.668zm-3.69-10.357-6.344-17.866h-1.165l-6.473 17.866h13.983z"/></svg>