<svg width="215" height="215" fill="none" xmlns="http://www.w3.org/2000/svg"><path d="M24.336 77.97a23.28 23.28 0 0 1-1.158 2.621 7.47 7.47 0 0 1-.454.77l-12.611-4.647a7.44 7.44 0 0 1 .154-.88 23.395 23.395 0 0 1 .813-2.728c.277-.75.591-1.43.943-2.04.357-.62.761-1.119 1.211-1.493a3.198 3.198 0 0 1 1.473-.757c.54-.114 1.128-.053 1.766.182.713.263 1.24.648 1.578 1.157.326.503.497 1.078.515 1.724.506-.68 1.087-1.155 1.74-1.426.654-.27 1.425-.242 2.314.085 1.3.48 2.105 1.323 2.413 2.531.3 1.19.068 2.824-.697 4.901Zm-6.804-.567 4.58 1.687c.063-.133.135-.291.217-.474.072-.158.154-.341.245-.55l.283-.769a12.38 12.38 0 0 0 .466-1.554 4.8 4.8 0 0 0 .096-1.415 2.293 2.293 0 0 0-.414-1.133c-.23-.34-.583-.598-1.058-.773-.425-.157-.812-.207-1.16-.15-.36.051-.685.202-.976.45a3.494 3.494 0 0 0-.776.95c-.232.398-.445.86-.638 1.385l-.865 2.346Zm-1.463-.54.705-1.914a8.8 8.8 0 0 0 .376-1.31c.085-.424.1-.81.043-1.157-.052-.36-.18-.67-.382-.93-.198-.272-.498-.482-.898-.63-.375-.138-.72-.165-1.035-.082a1.901 1.901 0 0 0-.89.503c-.272.24-.523.553-.75.939a7.861 7.861 0 0 0-.597 1.272c-.17.463-.298.828-.382 1.095-.084.267-.153.512-.206.734l4.016 1.48Zm6.414-19.882 9.17 4.906-.85 1.587-6.983-3.736c.258.591.574 1.26.947 2.003.373.744.77 1.5 1.19 2.27a83.113 83.113 0 0 0 2.356 4.118l-.783 1.464-9.17-4.906.849-1.587 6.595 3.529a73.305 73.305 0 0 1-1.1-1.928 54.004 54.004 0 0 1-1.158-2.161 67.073 67.073 0 0 1-1.04-2.167 24.842 24.842 0 0 1-.797-1.946l.774-1.446Zm8.876 2.356.66-.905a9.103 9.103 0 0 0-.99-2.006 11.454 11.454 0 0 0-1.345-1.721 17.79 17.79 0 0 0-1.69-1.552 72.502 72.502 0 0 0-1.99-1.547l4.012-5.515 7.18 5.225.824-1.132 3.574 2.6-1.036 1.424-2.345-1.706-4.59 6.306 2.346 1.707-1.036 1.423-3.574-2.6Zm4.743-6.517-5.92-4.307-1.917 2.636c.499.38.991.78 1.477 1.199.476.412.931.85 1.367 1.316.426.458.814.955 1.166 1.492.349.517.652 1.076.908 1.675l2.919-4.011Zm.325-6.37c-.668-.632-1.157-1.28-1.467-1.94-.32-.671-.493-1.322-.52-1.953a4.303 4.303 0 0 1 .306-1.805 4.74 4.74 0 0 1 .964-1.511c.963-1.017 2.02-1.493 3.173-1.43 1.143.055 2.362.696 3.66 1.925l.231.22c.087.083.165.166.233.249l-4.897 5.168c.839.685 1.65 1.021 2.432 1.01.782-.012 1.572-.439 2.37-1.28.45-.475.787-.908 1.013-1.301.224-.412.376-.736.454-.974l1.312.884c-.07.247-.253.625-.55 1.133a8.332 8.332 0 0 1-1.176 1.53c-.623.659-1.261 1.138-1.914 1.438-.652.282-1.3.413-1.941.392a4.737 4.737 0 0 1-1.895-.472 7.559 7.559 0 0 1-1.788-1.282Zm4.171-5.883c-.6-.588-1.246-.905-1.935-.953-.69-.066-1.297.176-1.82.728-.294.31-.492.645-.596 1.006a2.575 2.575 0 0 0-.1 1.036c.038.348.137.69.297 1.024.17.326.37.627.604.904l3.55-3.745Zm11.633-8.759c.522.641.901 1.295 1.136 1.964.236.668.335 1.327.297 1.977a4.454 4.454 0 0 1-.485 1.842 4.988 4.988 0 0 1-1.279 1.533 4.986 4.986 0 0 1-1.759.944 4.662 4.662 0 0 1-1.917.119 5.216 5.216 0 0 1-1.862-.701c-.607-.365-1.172-.868-1.695-1.508-.514-.63-.888-1.28-1.124-1.948a5.18 5.18 0 0 1-.325-1.98 4.43 4.43 0 0 1 .514-1.84 4.772 4.772 0 0 1 1.266-1.548 4.77 4.77 0 0 1 1.772-.929 4.238 4.238 0 0 1 1.888-.12 5 5 0 0 1 1.89.703c.608.365 1.168.862 1.682 1.492Zm-1.504 1.227c-.741-.91-1.534-1.46-2.377-1.649-.841-.209-1.613-.026-2.316.547-.702.573-1.04 1.297-1.016 2.171.027.856.411 1.738 1.153 2.647.742.91 1.533 1.468 2.374 1.677.843.19 1.616-.002 2.319-.575.702-.573 1.04-1.287 1.013-2.143-.025-.874-.408-1.766-1.15-2.675Zm11.416-7.97c.503.058 1.075.17 1.714.334.633.154 1.273.35 1.921.586.66.23 1.297.488 1.91.774a17.42 17.42 0 0 1 1.618.82l-1.926 1.063a12.89 12.89 0 0 0-1.577-.707c-.57-.233-1.149-.44-1.735-.62a18.354 18.354 0 0 0-1.727-.44 12.688 12.688 0 0 0-1.54-.225l2.375 4.309-1.629.898-5.02-9.108 1.629-.898 2.153 3.906c.132-.423.282-.91.451-1.46l.488-1.684c.167-.58.319-1.12.454-1.62.128-.513.23-.935.307-1.266l1.892-1.043c-.103.422-.23.91-.38 1.465-.146.537-.302 1.096-.47 1.675l-.468 1.72-.44 1.521Zm11.65-.778c.407-.165.763-.316 1.067-.453.312-.154.563-.299.753-.433l-1.161-2.875c-.149-.011-.373.021-.672.1-.292.06-.636.17-1.031.33a7.29 7.29 0 0 0-.812.392 2.68 2.68 0 0 0-.7.563c-.19.207-.323.447-.4.722-.08.263-.053.561.082.895.25.618.622.971 1.118 1.058.49.076 1.075-.024 1.755-.299Zm-3.64-8.582c.693-.28 1.311-.421 1.856-.426.552-.021 1.038.077 1.457.296.426.202.794.506 1.102.914.304.395.565.865.785 1.409l2.434 6.026a49.29 49.29 0 0 0-.585.366 25.656 25.656 0 0 1-1.902 1.006 12.86 12.86 0 0 1-1.127.52 6.85 6.85 0 0 1-1.57.44c-.502.073-.968.06-1.396-.04a2.69 2.69 0 0 1-1.169-.65c-.345-.32-.63-.759-.855-1.315-.215-.532-.294-1.032-.239-1.5a2.88 2.88 0 0 1 .516-1.287 4.402 4.402 0 0 1 1.088-1.043c.45-.311.947-.577 1.49-.796.174-.07.358-.13.553-.18a3.55 3.55 0 0 1 .55-.136 8.93 8.93 0 0 1 .756-.155l-.194-.482a4.048 4.048 0 0 0-.43-.797 1.994 1.994 0 0 0-.633-.607 1.7 1.7 0 0 0-.878-.25c-.327-.026-.713.051-1.158.23a8.33 8.33 0 0 0-1.45.737c-.39.244-.673.452-.848.623l-.78-1.345c.182-.189.516-.431 1-.728a9.725 9.725 0 0 1 1.627-.83Zm12.818.961c.475.176 1.004.42 1.585.733.578.3 1.154.642 1.727 1.027.585.38 1.143.783 1.671 1.207.525.41.983.805 1.375 1.183l-2.124.572a12.905 12.905 0 0 0-1.363-1.062 20.054 20.054 0 0 0-1.537-1.015 18.359 18.359 0 0 0-1.573-.84 12.71 12.71 0 0 0-1.442-.585l1.28 4.75-1.796.484-2.705-10.042 1.796-.484 1.16 4.307c.23-.38.491-.816.786-1.31l.875-1.52a89.78 89.78 0 0 0 .827-1.465c.248-.467.448-.853.6-1.156l2.086-.562c-.2.385-.44.83-.718 1.333-.27.486-.554.991-.855 1.514l-.865 1.559-.79 1.372Zm14.242-4.604a78.998 78.998 0 0 0-.035 3.97c.021 1.31.05 2.543.088 3.703l-1.776.12a91.53 91.53 0 0 1-.05-2.543 180.836 180.836 0 0 1 .042-5.355c.021-.883.052-1.727.091-2.532l1.697-.113c.472.663 1.034 1.58 1.687 2.753.653 1.16 1.404 2.499 2.254 4.019.64-1.62 1.206-3.048 1.697-4.283.491-1.25.927-2.234 1.306-2.954l1.716-.115c.147.792.289 1.624.428 2.497a184.954 184.954 0 0 1 .756 5.301c.112.875.208 1.717.289 2.527l-1.836.123a218.6 218.6 0 0 0-.407-3.681 78.539 78.539 0 0 0-.563-3.932c-.186.427-.398.942-.639 1.546-.241.591-.481 1.195-.72 1.813a317.44 317.44 0 0 0-.643 1.766 73.383 73.383 0 0 0-.472 1.335l-1.557.104a71.07 71.07 0 0 0-.687-1.277 82.53 82.53 0 0 0-.893-1.664 44.288 44.288 0 0 0-.937-1.721 28.57 28.57 0 0 0-.836-1.407Zm17.42 2.329a13.841 13.841 0 0 0-1.058-.066 4.46 4.46 0 0 0-.908.03l-.355 3.563c.078.021.19.046.335.073.157.03.322.06.493.09.186.018.371.043.555.075l.498.05c.809.08 1.448-.01 1.916-.271.468-.262.736-.731.804-1.408a1.62 1.62 0 0 0-.134-.877 1.553 1.553 0 0 0-.5-.633 2.166 2.166 0 0 0-.742-.416 3.478 3.478 0 0 0-.904-.21Zm-3.279-5.613 1.851.184-.395 3.96c.231-.03.561-.05.991-.061.443-.01.864.005 1.262.045a5.948 5.948 0 0 1 1.532.354c.479.168.891.41 1.234.726.345.302.602.683.771 1.142.183.447.245.969.185 1.566-.062.623-.221 1.144-.477 1.56-.256.417-.59.745-1.002.986-.413.24-.897.393-1.453.458a7.591 7.591 0 0 1-1.811.02 15.337 15.337 0 0 1-1.879-.308c-.63-.13-1.236-.297-1.819-.503l1.01-10.13Zm10.869 11.535-1.85-.185 1.031-10.348 1.851.184-1.032 10.349Zm16.062-1.172c.364-1.157.358-2.137-.019-2.94-.376-.804-1.041-1.356-1.995-1.656-.534-.168-.96-.28-1.277-.338a5.287 5.287 0 0 0-.748-.089l-1.969 6.258c.161.246.418.516.773.809.355.293.774.516 1.258.668.509.16.969.207 1.381.141a2.619 2.619 0 0 0 1.137-.481 3.49 3.49 0 0 0 .856-.989 6.7 6.7 0 0 0 .603-1.383Zm1.85.583a7.131 7.131 0 0 1-.959 1.983 4.808 4.808 0 0 1-1.375 1.37 4.109 4.109 0 0 1-1.748.625c-.627.082-1.296.011-2.008-.213-.573-.18-1.058-.416-1.455-.709-.384-.288-.662-.537-.835-.744l-1.248 3.968-1.774-.558 4.135-13.145c.451.03 1.007.086 1.666.168.676.072 1.427.239 2.254.499.763.24 1.412.577 1.946 1.01a4.63 4.63 0 0 1 1.241 1.523c.292.581.451 1.232.476 1.953.041.712-.064 1.468-.316 2.27Zm4.619 6.158c.4.183.754.338 1.063.465.326.12.603.203.831.249l1.292-2.818c-.094-.116-.271-.256-.533-.42a6.196 6.196 0 0 0-.949-.523 7.295 7.295 0 0 0-.843-.32 2.686 2.686 0 0 0-.89-.123 1.725 1.725 0 0 0-.799.207c-.246.121-.444.346-.594.673-.278.606-.279 1.12-.002 1.54.283.407.757.764 1.424 1.07Zm3.737-8.54c.679.311 1.207.663 1.584 1.056.395.387.657.807.786 1.262.146.449.177.925.093 1.43a5.958 5.958 0 0 1-.485 1.537l-2.708 5.909c-.156-.042-.379-.1-.668-.174-.271-.08-.579-.177-.923-.291a24.642 24.642 0 0 1-1.114-.4 12.81 12.81 0 0 1-1.152-.463 6.853 6.853 0 0 1-1.398-.838 3.728 3.728 0 0 1-.93-1.043 2.691 2.691 0 0 1-.331-1.295c-.004-.471.119-.98.369-1.525.239-.521.548-.923.926-1.204a2.87 2.87 0 0 1 1.289-.509 4.398 4.398 0 0 1 1.506.074 7.656 7.656 0 0 1 1.603.536c.169.078.339.17.51.278.176.096.335.198.476.306a9.211 9.211 0 0 1 .632.444l.217-.472a4 4 0 0 0 .284-.86 2 2 0 0 0 .006-.877 1.696 1.696 0 0 0-.421-.81c-.206-.255-.527-.483-.963-.683a8.322 8.322 0 0 0-1.531-.547c-.445-.117-.791-.18-1.036-.189l.442-1.492c.263.003.668.08 1.216.228.553.136 1.127.34 1.721.612Zm8.198 5.91a4.373 4.373 0 0 1 1.624.118 5.047 5.047 0 0 1 1.505.61c1.267.791 1.979 1.778 2.136 2.96.176 1.18-.167 2.459-1.029 3.838a7.107 7.107 0 0 1-1.297 1.548 4.796 4.796 0 0 1-1.647.976 4.18 4.18 0 0 1-1.88.217c-.665-.07-1.347-.323-2.048-.76-.803-.502-1.379-1.066-1.727-1.692a4.05 4.05 0 0 1-.52-1.999c.013-.7.169-1.427.468-2.184.3-.756.686-1.513 1.159-2.27a20.627 20.627 0 0 1 1.92-2.621c.677-.757 1.403-1.34 2.179-1.752a5.45 5.45 0 0 1 2.54-.63c.935-.014 1.969.231 3.101.734.334.146.621.278.861.396l.664.297c.195.09.373.17.534.24.168.057.342.119.522.184l-.721 1.53a2.018 2.018 0 0 1-.286-.108l-.388-.171a50.493 50.493 0 0 1-1.722-.792c-1.197-.575-2.268-.773-3.214-.593-.945.18-1.857.82-2.734 1.924Zm-1.786 2.633a12.492 12.492 0 0 0-.841 1.573 5.195 5.195 0 0 0-.394 1.5c-.034.481.04.929.223 1.341.189.402.533.758 1.03 1.069.43.268.847.418 1.251.45a2.53 2.53 0 0 0 1.17-.212 3.52 3.52 0 0 0 1.039-.719c.331-.328.63-.707.899-1.136.24-.385.433-.783.58-1.194.158-.404.23-.808.214-1.21a2.452 2.452 0 0 0-.357-1.167c-.21-.367-.559-.703-1.045-1.006a3.827 3.827 0 0 0-1.565-.553c-.557-.065-1.046-.024-1.467.121a7.25 7.25 0 0 0-.345.515l-.392.628Zm15.831 12.59c-.526.637-1.095 1.136-1.705 1.497a5.03 5.03 0 0 1-1.882.676 4.454 4.454 0 0 1-1.9-.119 4.991 4.991 0 0 1-1.753-.956 4.995 4.995 0 0 1-1.268-1.542 4.666 4.666 0 0 1-.489-1.857 5.232 5.232 0 0 1 .326-1.963c.24-.667.623-1.319 1.15-1.956.518-.626 1.082-1.12 1.692-1.48a5.183 5.183 0 0 1 1.88-.704 4.428 4.428 0 0 1 1.903.146c.632.177 1.221.49 1.765.94.545.451.963.97 1.256 1.558a4.24 4.24 0 0 1 .486 1.83 5.013 5.013 0 0 1-.323 1.99c-.24.667-.619 1.314-1.138 1.94Zm-1.495-1.236c.748-.904 1.133-1.788 1.156-2.652.041-.866-.288-1.588-.987-2.165-.699-.578-1.474-.77-2.327-.575-.834.192-1.625.74-2.373 1.645-.748.904-1.142 1.789-1.183 2.655-.023.864.316 1.584 1.014 2.162.699.578 1.465.77 2.299.578.853-.194 1.654-.744 2.401-1.648Zm12.653 5.178-1.129 1.077-2.333-2.447-6.397 6.1-1.284-1.345 6.398-6.1-2.333-2.447 1.129-1.076 5.949 6.238Zm-3.137 10.656c.267.35.507.653.72.91.232.259.438.462.618.61l2.462-1.883c-.028-.146-.119-.354-.273-.621a6.2 6.2 0 0 0-.593-.907 7.286 7.286 0 0 0-.594-.678 2.682 2.682 0 0 0-.729-.526 1.724 1.724 0 0 0-.802-.192c-.275-.008-.555.097-.841.316-.53.404-.771.857-.723 1.358.058.493.309 1.03.755 1.613Zm7.306-5.788c.454.594.755 1.152.904 1.676.167.527.201 1.021.102 1.483-.081.465-.277.9-.588 1.306a5.996 5.996 0 0 1-1.15 1.13l-5.164 3.948a57.17 57.17 0 0 0-.508-.467 30.202 30.202 0 0 1-.678-.69 23.89 23.89 0 0 1-.796-.876c-.283-.304-.55-.62-.801-.949a6.807 6.807 0 0 1-.841-1.396 3.732 3.732 0 0 1-.333-1.357 2.699 2.699 0 0 1 .316-1.3c.218-.417.565-.808 1.041-1.173.456-.348.917-.558 1.383-.629.474-.06.933-.008 1.377.156.444.163.876.42 1.295.772.42.35.807.759 1.164 1.225.113.148.22.31.32.485.111.167.203.331.277.493a9.332 9.332 0 0 1 .35.69l.413-.317c.244-.186.462-.395.654-.626.204-.239.343-.496.417-.772.086-.283.088-.587.008-.912-.062-.322-.238-.674-.53-1.055a8.282 8.282 0 0 0-1.095-1.202c-.339-.311-.614-.529-.826-.652l1.09-1.11c.23.126.553.383.967.77.425.38.836.83 1.232 1.35Zm-.148 9.106c.795-.463 1.553-.75 2.275-.862.733-.118 1.407-.101 2.02.051a4.301 4.301 0 0 1 1.646.8c.484.382.878.832 1.179 1.35.705 1.21.864 2.36.48 3.447-.374 1.082-1.333 2.072-2.877 2.97l-.276.162c-.104.06-.205.111-.304.153l-3.582-6.153c-.893.613-1.444 1.296-1.653 2.05-.209.754-.022 1.633.562 2.635.328.565.649 1.01.963 1.337.332.331.601.568.807.71l-1.217 1.01c-.218-.136-.529-.418-.932-.846a8.318 8.318 0 0 1-1.139-1.559c-.456-.783-.737-1.53-.842-2.24a4.5 4.5 0 0 1 .17-1.974c.201-.61.529-1.172.987-1.685a7.545 7.545 0 0 1 1.733-1.356Zm4.473 5.657c.733-.41 1.219-.94 1.459-1.589.257-.644.195-1.294-.187-1.95a2.44 2.44 0 0 0-.798-.855 2.584 2.584 0 0 0-.966-.387 3.156 3.156 0 0 0-1.067-.004c-.36.07-.705.18-1.037.326l2.596 4.46Zm4.596 6.167a79.34 79.34 0 0 0-3.784 1.205c-1.236.427-2.4.84-3.491 1.237l-.666-1.65c.764-.28 1.564-.56 2.4-.84a176.235 176.235 0 0 1 5.101-1.63 106.92 106.92 0 0 1 2.434-.702l.637 1.577c-.483.655-1.18 1.476-2.09 2.462a2090.7 2090.7 0 0 1-3.116 3.393c1.738.103 3.271.196 4.598.278 1.34.078 2.411.184 3.214.32l.644 1.595c-.707.386-1.453.781-2.239 1.185-.774.399-1.569.799-2.384 1.2-.804.396-1.61.786-2.418 1.17-.796.38-1.566.733-2.31 1.063l-.689-1.707c1.06-.471 2.184-.982 3.371-1.533a78.967 78.967 0 0 0 3.559-1.761 55.012 55.012 0 0 0-1.668-.125c-.636-.045-1.285-.085-1.946-.12-.656-.022-1.283-.042-1.88-.06a78.309 78.309 0 0 0-1.415-.033l-.584-1.446c.254-.261.587-.611.999-1.051a80.73 80.73 0 0 0 1.303-1.367c.469-.477.917-.953 1.344-1.427.439-.48.798-.89 1.076-1.233Zm-4.373 68.406a24.888 24.888 0 0 1 .724-1.758c.134-.292.275-.581.422-.869.147-.287.297-.544.451-.772l12.632 4.587a7.271 7.271 0 0 1-.15.882 22.439 22.439 0 0 1-.511 1.878c-.097.305-.193.59-.289.853a13.19 13.19 0 0 1-.933 2.044c-.354.623-.756 1.123-1.204 1.499a3.198 3.198 0 0 1-1.47.764c-.538.117-1.127.059-1.766-.173-.715-.259-1.242-.642-1.583-1.149a3.273 3.273 0 0 1-.524-1.722c-.503.682-1.081 1.16-1.734 1.434-.652.274-1.423.249-2.313-.074-1.304-.473-2.112-1.313-2.426-2.519-.306-1.19-.081-2.824.674-4.905Zm6.806.535-4.586-1.665a43.636 43.636 0 0 0-.458 1.025l-.28.771a12.342 12.342 0 0 0-.459 1.557 4.827 4.827 0 0 0-.088 1.415c.043.427.183.804.419 1.131.232.339.585.595 1.062.768.426.155.812.203 1.16.145.36-.054.684-.206.974-.455.284-.237.542-.555.772-.954.229-.399.44-.861.631-1.388l.853-2.35Zm1.467.533-.697 1.917a8.944 8.944 0 0 0-.37 1.313 3.242 3.242 0 0 0-.037 1.157c.054.36.183.669.387.927.199.271.5.48.901.625.376.137.721.163 1.035.078.327-.079.623-.249.887-.507.272-.242.521-.556.746-.942.225-.387.422-.812.591-1.275.168-.464.294-.83.377-1.097.083-.268.15-.513.203-.735l-4.023-1.461Zm-6.347 19.919-9.184-4.881.845-1.589 6.994 3.717a42.302 42.302 0 0 0-.952-2.001 73.288 73.288 0 0 0-1.197-2.267 81.581 81.581 0 0 0-1.242-2.223 80.475 80.475 0 0 0-1.125-1.889l.779-1.465 9.184 4.88-.845 1.59-6.605-3.511c.343.576.712 1.217 1.106 1.925.406.714.794 1.433 1.163 2.158a66.45 66.45 0 0 1 1.047 2.164c.328.718.595 1.366.802 1.944l-.77 1.448Zm-8.879-2.336-.654.909a9.085 9.085 0 0 0 1 2.001c.396.613.847 1.185 1.354 1.713a17.715 17.715 0 0 0 1.699 1.543 71.707 71.707 0 0 0 1.999 1.536l-3.983 5.537-7.208-5.186-.818 1.136-3.588-2.581 1.028-1.428 2.354 1.693 4.555-6.332-2.354-1.693 1.028-1.429 3.588 2.581Zm-4.707 6.543 5.942 4.275 1.904-2.647a30.07 30.07 0 0 1-1.484-1.19 18.21 18.21 0 0 1-1.374-1.309c-.428-.456-.82-.951-1.174-1.485a10.14 10.14 0 0 1-.918-1.67l-2.896 4.026Zm-.306 6.383c.669.631 1.159 1.277 1.47 1.938.321.67.495 1.321.523 1.952a4.29 4.29 0 0 1-.302 1.805 4.74 4.74 0 0 1-.961 1.513c-.961 1.018-2.018 1.496-3.171 1.435-1.142-.052-2.363-.691-3.662-1.918l-.233-.22a2.657 2.657 0 0 1-.233-.248l4.888-5.177c-.84-.683-1.652-1.018-2.434-1.005-.783.013-1.572.441-2.368 1.285-.449.475-.785.909-1.01 1.302-.224.412-.375.737-.453.975l-1.313-.882c.069-.247.251-.625.548-1.134a8.315 8.315 0 0 1 1.173-1.533c.622-.659 1.259-1.139 1.911-1.441a4.487 4.487 0 0 1 1.941-.395 4.724 4.724 0 0 1 1.895.469 7.528 7.528 0 0 1 1.791 1.279Zm-4.161 5.891c.602.586 1.248.903 1.938.949.69.065 1.296-.179 1.818-.731.293-.31.491-.646.593-1.007.104-.343.136-.688.098-1.036a3.161 3.161 0 0 0-.298-1.024 4.915 4.915 0 0 0-.606-.903l-3.543 3.752Zm-11.615 8.781c-.524-.64-.904-1.293-1.141-1.961a5.037 5.037 0 0 1-.301-1.977 4.455 4.455 0 0 1 .482-1.842 4.972 4.972 0 0 1 1.276-1.536 4.972 4.972 0 0 1 1.757-.948 4.649 4.649 0 0 1 1.916-.122 5.205 5.205 0 0 1 1.864.697c.608.364 1.174.865 1.698 1.505.515.629.891 1.278 1.128 1.945.245.679.355 1.338.329 1.98a4.457 4.457 0 0 1-.51 1.84 4.771 4.771 0 0 1-1.263 1.551 4.758 4.758 0 0 1-1.77.932 4.227 4.227 0 0 1-1.888.125 4.995 4.995 0 0 1-1.892-.7c-.608-.363-1.17-.86-1.685-1.489Zm1.501-1.229c.743.907 1.537 1.455 2.38 1.644.842.206 1.613.023 2.315-.552.701-.574 1.039-1.299 1.012-2.173-.029-.856-.415-1.737-1.158-2.645-.744-.908-1.536-1.465-2.378-1.672-.843-.188-1.616.005-2.317.58-.702.574-1.038 1.289-1.009 2.145.026.874.411 1.765 1.155 2.673Zm-11.366 8.007a12.543 12.543 0 0 1-1.716-.325 17.878 17.878 0 0 1-1.924-.575c-.661-.226-1.3-.481-1.915-.763a17.84 17.84 0 0 1-1.622-.813l1.921-1.072c.477.253 1.004.485 1.581.698.571.231 1.151.434 1.738.611.587.176 1.163.32 1.729.431.567.112 1.08.184 1.541.217l-2.397-4.296 1.624-.907 5.068 9.082-1.624.906-2.174-3.895c-.13.424-.278.911-.444 1.462l-.478 1.687a97.638 97.638 0 0 0-.446 1.623c-.126.513-.226.936-.3 1.267l-1.886 1.053c.1-.422.224-.912.372-1.467a93.54 93.54 0 0 1 .461-1.678l.459-1.722.432-1.524Zm-11.659.822c-.408.165-.764.317-1.068.454a5.89 5.89 0 0 0-.752.434l1.164 2.874c.149.011.373-.022.672-.1a6.189 6.189 0 0 0 1.031-.331c.26-.105.53-.237.812-.394.269-.152.502-.34.699-.564.19-.206.323-.447.398-.722.081-.263.053-.561-.082-.895-.25-.618-.623-.97-1.119-1.057-.49-.075-1.075.026-1.755.301Zm3.648 8.578c-.692.281-1.311.423-1.855.428-.553.022-1.038-.076-1.458-.294a2.981 2.981 0 0 1-1.103-.913 5.955 5.955 0 0 1-.786-1.408l-2.441-6.024c.139-.085.334-.207.586-.367.244-.142.526-.299.844-.471.319-.173.671-.351 1.056-.536.368-.192.744-.366 1.127-.521a6.823 6.823 0 0 1 1.569-.442 3.727 3.727 0 0 1 1.397.039c.434.112.823.328 1.169.648.345.321.631.759.856 1.315.215.531.296 1.031.241 1.499a2.878 2.878 0 0 1-.515 1.288 4.38 4.38 0 0 1-1.087 1.044 7.602 7.602 0 0 1-1.489.798c-.173.07-.358.13-.553.181a3.6 3.6 0 0 1-.549.136c-.183.045-.341.08-.475.106a6.451 6.451 0 0 1-.282.049l.195.482c.115.284.259.55.431.797.177.259.388.461.634.606.251.158.543.24.877.249.327.026.713-.052 1.158-.232a8.257 8.257 0 0 0 1.449-.738c.39-.244.673-.452.848-.624l.782 1.345c-.182.189-.516.432-1 .729a9.732 9.732 0 0 1-1.626.831Zm-12.791-.933a12.57 12.57 0 0 1-1.589-.725 17.948 17.948 0 0 1-1.732-1.017 20.629 20.629 0 0 1-1.677-1.199 17.51 17.51 0 0 1-1.381-1.176l2.121-.583c.403.36.859.711 1.369 1.055.5.361 1.014.696 1.542 1.008.528.311 1.053.588 1.576.832.524.243 1.005.436 1.445.577l-1.303-4.744 1.793-.492 2.756 10.028-1.794.493-1.182-4.301c-.227.381-.487.818-.779 1.314l-.867 1.524a82.64 82.64 0 0 0-.82 1.47c-.245.468-.443.854-.595 1.158l-2.082.573c.198-.387.435-.832.711-1.336.267-.489.55-.995.848-1.519l.856-1.563.784-1.377Zm-14.24 4.673c.042-1.326.051-2.65.026-3.971a230.31 230.31 0 0 0-.096-3.702l1.775-.123c.03.813.049 1.66.056 2.542a171.753 171.753 0 0 1-.03 5.355 94.595 94.595 0 0 1-.085 2.532l-1.696.117c-.473-.662-1.038-1.578-1.694-2.749-.655-1.158-1.409-2.495-2.263-4.013-.636 1.621-1.198 3.05-1.687 4.287-.488 1.25-.921 2.235-1.299 2.957l-1.716.118a98.306 98.306 0 0 1-.433-2.495c-.14-.86-.275-1.739-.404-2.639-.128-.887-.25-1.774-.365-2.661a92.231 92.231 0 0 1-.295-2.526l1.835-.127c.121 1.155.259 2.381.416 3.68.158 1.312.349 2.622.573 3.93a55.6 55.6 0 0 0 .635-1.548c.239-.591.478-1.196.716-1.814.224-.617.437-1.206.639-1.768a75.59 75.59 0 0 0 .469-1.336l1.556-.107c.17.322.399.747.69 1.275.277.529.576 1.083.897 1.662.308.593.622 1.166.941 1.719.32.566.6 1.034.839 1.405Zm-17.425-2.285c.358.035.711.056 1.059.063.333.019.636.008.907-.033l.345-3.563a4.637 4.637 0 0 0-.334-.073 64.764 64.764 0 0 0-.494-.088 7.488 7.488 0 0 1-.556-.074l-.497-.048c-.81-.078-1.448.014-1.916.277-.467.263-.734.733-.8 1.409a1.62 1.62 0 0 0 .137.878c.11.251.277.462.501.631.21.181.458.319.744.413.284.108.586.178.904.208Zm3.296 5.604-1.852-.179.384-3.962a9.753 9.753 0 0 1-.991.065c-.443.011-.864-.003-1.262-.042a5.938 5.938 0 0 1-1.534-.349 3.538 3.538 0 0 1-1.236-.722 2.756 2.756 0 0 1-.773-1.14c-.185-.447-.248-.969-.19-1.566.06-.623.217-1.144.472-1.561a2.842 2.842 0 0 1 1-.989c.412-.241.895-.395 1.451-.462a7.591 7.591 0 0 1 1.811-.026c.624.061 1.25.161 1.88.303.63.128 1.237.294 1.82.497l-.98 10.133Zm-10.903-11.504 1.851.179-1.001 10.352-1.852-.179 1.002-10.352Zm-16.056 1.227c-.36 1.158-.35 2.139.029 2.941.38.801 1.046 1.351 2.001 1.647.535.166.961.278 1.279.334.304.053.554.082.748.086l1.945-6.265c-.16-.245-.42-.514-.775-.806a3.7 3.7 0 0 0-1.26-.664c-.51-.158-.97-.203-1.382-.136a2.63 2.63 0 0 0-1.135.486c-.332.26-.616.59-.853.991-.24.415-.44.876-.597 1.386Zm-1.853-.576c.233-.751.55-1.413.952-1.987a4.816 4.816 0 0 1 1.37-1.376 4.114 4.114 0 0 1 1.745-.63c.627-.085 1.297-.016 2.01.205.573.178 1.058.413 1.457.704.385.287.665.534.837.742l1.234-3.973 1.776.551-4.086 13.16a30.103 30.103 0 0 1-1.667-.161c-.677-.071-1.428-.234-2.256-.491-.764-.238-1.414-.572-1.95-1.004a4.632 4.632 0 0 1-1.246-1.518 4.645 4.645 0 0 1-.483-1.951c-.044-.712.058-1.469.307-2.271Zm-4.64-6.146c-.4-.182-.755-.336-1.064-.462a5.668 5.668 0 0 0-.832-.247l-1.284 2.821c.093.116.272.256.534.419.245.17.562.344.95.521.255.115.536.222.844.318.296.09.593.13.89.119.28-.004.547-.074.798-.208.246-.122.444-.347.593-.675.276-.607.275-1.12-.002-1.539-.284-.408-.76-.763-1.427-1.067Zm-3.714 8.549c-.68-.309-1.209-.659-1.587-1.051-.396-.386-.66-.806-.79-1.26a2.967 2.967 0 0 1-.096-1.429 5.975 5.975 0 0 1 .48-1.539l2.692-5.916c.157.042.38.099.67.172.27.08.578.176.923.289.344.112.716.245 1.115.397.393.135.777.288 1.153.459a6.795 6.795 0 0 1 1.4.835c.4.314.71.66.934 1.04.217.392.328.823.334 1.294.005.472-.117.98-.365 1.526-.238.522-.545.924-.923 1.207-.39.276-.819.447-1.288.512a4.389 4.389 0 0 1-1.506-.07 7.653 7.653 0 0 1-1.604-.532 4.22 4.22 0 0 1-.51-.277 3.553 3.553 0 0 1-.478-.304 8.816 8.816 0 0 1-.633-.442l-.216.473c-.127.279-.22.566-.281.86-.067.307-.068.6-.004.878.058.29.2.559.423.808.207.255.528.481.965.68.558.254 1.07.435 1.533.544.445.115.79.177 1.036.186l-.438 1.492c-.263-.002-.668-.077-1.216-.224a9.63 9.63 0 0 1-1.723-.608Zm-8.21-5.881a4.358 4.358 0 0 1-1.623-.112 5.05 5.05 0 0 1-1.508-.605c-1.27-.787-1.985-1.771-2.146-2.953-.18-1.178.159-2.459 1.016-3.841a7.1 7.1 0 0 1 1.291-1.553 4.787 4.787 0 0 1 1.644-.981 4.172 4.172 0 0 1 1.88-.224c.664.067 1.347.318 2.05.753.805.499 1.382 1.061 1.732 1.686.35.624.526 1.29.527 1.997-.01.699-.163 1.428-.46 2.185-.297.757-.68 1.516-1.151 2.275a20.575 20.575 0 0 1-1.91 2.628c-.675.758-1.4 1.345-2.173 1.759a5.452 5.452 0 0 1-2.538.639c-.935.017-1.97-.225-3.104-.723a20.883 20.883 0 0 1-.862-.394 60.59 60.59 0 0 1-.665-.294c-.195-.09-.374-.169-.535-.237a53.92 53.92 0 0 1-.522-.183l.715-1.533c.093.026.188.062.286.107l.389.17a54.492 54.492 0 0 1 1.725.786c1.198.571 2.27.765 3.215.582.945-.183 1.854-.828 2.728-1.934Zm1.778-2.639c.33-.533.609-1.058.836-1.577a5.207 5.207 0 0 0 .388-1.5 2.786 2.786 0 0 0-.227-1.341c-.191-.401-.536-.756-1.035-1.065-.43-.266-.848-.415-1.252-.446a2.533 2.533 0 0 0-1.17.216 3.514 3.514 0 0 0-1.036.723 6.22 6.22 0 0 0-.894 1.139c-.24.386-.431.784-.577 1.196a2.98 2.98 0 0 0-.21 1.212c.018.402.138.79.361 1.164.212.367.562.701 1.05 1.003a3.82 3.82 0 0 0 1.566.548c.557.062 1.046.02 1.467-.127.088-.118.203-.29.343-.516l.39-.629Zm-15.875-12.535c.524-.639 1.09-1.14 1.7-1.503a5.057 5.057 0 0 1 1.88-.682 4.453 4.453 0 0 1 1.9.112 4.99 4.99 0 0 1 1.756.95c.546.449.97.961 1.274 1.538a4.66 4.66 0 0 1 .495 1.855 5.213 5.213 0 0 1-.319 1.964c-.238.668-.619 1.321-1.143 1.96-.516.628-1.079 1.124-1.687 1.487a5.179 5.179 0 0 1-1.877.71 4.425 4.425 0 0 1-1.904-.14 4.766 4.766 0 0 1-1.769-.934 4.776 4.776 0 0 1-1.26-1.553 4.243 4.243 0 0 1-.493-1.828c-.035-.65.07-1.314.316-1.992.238-.667.615-1.315 1.13-1.944Zm1.499 1.231c-.745.907-1.127 1.792-1.146 2.656-.038.866.293 1.587.994 2.162.7.576 1.477.765 2.33.567.833-.195 1.622-.747 2.366-1.653.745-.907 1.136-1.793 1.174-2.659.02-.864-.32-1.584-1.022-2.159-.7-.576-1.467-.766-2.3-.57-.853.197-1.651.749-2.396 1.656Zm-12.67-5.141 1.125-1.08 2.34 2.44 6.38-6.12 1.287 1.343-6.38 6.119 2.34 2.439-1.126 1.08-5.967-6.221Zm3.103-10.663c-.269-.349-.51-.651-.724-.907a5.818 5.818 0 0 0-.62-.608l-2.456 1.892c.029.146.12.353.276.62.137.265.336.567.596.905.17.221.37.447.596.676.22.219.463.393.731.523.25.127.517.19.803.189.275.008.555-.099.84-.318.528-.407.767-.861.718-1.362-.06-.492-.313-1.029-.76-1.61Zm-7.287 5.814c-.455-.592-.758-1.149-.909-1.673-.17-.526-.205-1.02-.107-1.483a2.97 2.97 0 0 1 .583-1.307 5.96 5.96 0 0 1 1.146-1.135l5.15-3.966c.118.11.288.266.51.465.202.198.43.427.68.688.252.261.518.552.8.874.284.303.552.618.804.945.358.465.64.93.846 1.394.206.464.318.916.337 1.356.009.447-.095.881-.311 1.3-.216.418-.562.811-1.037 1.177-.454.35-.914.561-1.38.634a2.866 2.866 0 0 1-1.378-.151 4.397 4.397 0 0 1-1.298-.767 7.72 7.72 0 0 1-1.168-1.221 4.47 4.47 0 0 1-.322-.484 3.551 3.551 0 0 1-.279-.493 8.953 8.953 0 0 1-.352-.687l-.412.317c-.243.187-.46.397-.652.628-.203.24-.34.498-.414.774a1.698 1.698 0 0 0-.005.912c.063.322.24.673.534 1.053.374.486.74.885 1.1 1.198.34.31.615.527.828.65l-1.086 1.114c-.231-.125-.555-.381-.97-.768a9.787 9.787 0 0 1-1.238-1.344Zm.116-9.11c-.794.466-1.552.755-2.273.869-.733.12-1.406.105-2.02-.045a4.314 4.314 0 0 1-1.649-.796 4.755 4.755 0 0 1-1.183-1.346c-.707-1.208-.87-2.357-.489-3.446.37-1.082 1.326-2.075 2.868-2.978l.276-.162a2.72 2.72 0 0 1 .303-.155l3.6 6.143c.892-.615 1.44-1.3 1.647-2.055.207-.755.017-1.632-.57-2.633-.33-.564-.652-1.009-.967-1.334-.332-.331-.602-.567-.809-.708l1.215-1.013c.218.134.53.416.934.843.399.416.78.934 1.144 1.555.458.782.74 1.529.848 2.239a4.5 4.5 0 0 1-.165 1.974 4.738 4.738 0 0 1-.981 1.687c-.474.51-1.05.964-1.73 1.361Zm-4.49-5.644c-.732.413-1.216.944-1.454 1.594-.256.644-.192 1.294.193 1.95.215.368.482.652.8.852.3.195.622.323.967.384s.7.061 1.067.001c.36-.072.705-.182 1.036-.329l-2.61-4.452Zm-4.614-6.148a78.78 78.78 0 0 0 3.78-1.218 231.53 231.53 0 0 0 3.486-1.249l.672 1.648c-.763.282-1.562.565-2.397.848a181.198 181.198 0 0 1-5.096 1.647c-.845.258-1.655.495-2.431.711l-.642-1.574c.48-.657 1.174-1.48 2.081-2.469.895-.984 1.93-2.119 3.104-3.405-1.739-.097-3.272-.184-4.6-.262-1.34-.072-2.411-.175-3.214-.308l-.65-1.593a137.39 137.39 0 0 1 4.615-2.401c.802-.399 1.606-.792 2.413-1.179a87.9 87.9 0 0 1 2.307-1.07l.695 1.703c-1.059.475-2.18.991-3.366 1.546a78.859 78.859 0 0 0-3.553 1.774c.463.041 1.02.081 1.669.118.636.043 1.285.081 1.946.113.657.02 1.283.038 1.88.054s1.069.025 1.415.028l.59 1.444c-.254.262-.585.613-.996 1.054a83.36 83.36 0 0 0-1.298 1.372c-.467.479-.913.956-1.338 1.432-.438.481-.795.893-1.072 1.236Z" fill="#FF9128"/><circle cx="201.934" cy="107.935" r="7" fill="#FF9128"/><circle cx="18.934" cy="107.935" r="7" fill="#FF9128"/></svg>