<svg width="33" height="33" fill="none" xmlns="http://www.w3.org/2000/svg"><path fill-rule="evenodd" clip-rule="evenodd" d="M32.2 15.685c0 8.662-7.078 15.686-15.808 15.686a15.839 15.839 0 0 1-7.64-1.952L0 32.2l2.854-8.416a15.524 15.524 0 0 1-2.268-8.099C.584 7.022 7.662 0 16.392 0S32.2 7.024 32.2 15.685ZM16.392 2.498c-7.328 0-13.289 5.916-13.289 13.187 0 2.886.94 5.559 2.532 7.732l-1.66 4.897 5.105-1.622a13.282 13.282 0 0 0 7.312 2.181c7.33 0 13.29-5.916 13.29-13.188 0-7.27-5.96-13.187-13.29-13.187Zm7.983 16.8c-.098-.161-.356-.258-.744-.449-.387-.191-2.293-1.123-2.647-1.25-.356-.128-.614-.193-.873.192a22 22 0 0 1-1.228 1.507c-.225.258-.45.288-.837.097-.388-.194-1.636-.598-3.117-1.908a11.595 11.595 0 0 1-2.154-2.663c-.227-.384-.026-.594.17-.785.172-.173.386-.449.581-.672.193-.225.258-.384.386-.642.13-.258.065-.48-.032-.674-.096-.191-.871-2.083-1.195-2.854-.322-.769-.644-.64-.872-.64-.225 0-.483-.032-.742-.032a1.429 1.429 0 0 0-1.033.48c-.356.383-1.356 1.315-1.356 3.207s1.389 3.719 1.582 3.977c.193.255 2.68 4.264 6.619 5.804 3.94 1.537 3.94 1.026 4.649.96.71-.063 2.294-.928 2.616-1.828.322-.897.322-1.668.227-1.827Z" fill="#FAFAFA"/></svg>