<svg width="60" height="60" fill="none" xmlns="http://www.w3.org/2000/svg"><path d="M57 4.5H3a3.003 3.003 0 0 0-3 3v36a3.003 3.003 0 0 0 3 3h10.083c.828 5.12 7.96 9 16.917 9 8.958 0 16.089-3.88 16.917-9H57a3.003 3.003 0 0 0 3-3v-36a3.003 3.003 0 0 0-3-3Zm-55 3a1 1 0 0 1 1-1h10v15H2v-14Zm11 37H3a1 1 0 0 1-1-1v-14h11v15Zm17 9c-8.13 0-15-3.663-15-8 0-3.736 5.205-7.109 12.113-7.846a27.2 27.2 0 0 1 5.781 0C39.795 38.391 45 41.764 45 45.5c0 4.337-6.87 8-15 8Zm28-10a1 1 0 0 1-1 1H46.91c-.742-4.399-6.314-8.035-13.797-8.834a29.351 29.351 0 0 0-6.219 0A24.825 24.825 0 0 0 21 37.01V29.5h37v14Zm0-16H20a1 1 0 0 0-1 1v9.36a13.437 13.437 0 0 0-4 2.937V28.5a1 1 0 0 0-1-1H2v-4h12a1 1 0 0 0 1-1v-16h4v16a1 1 0 0 0 1 1h38v4Zm0-6H21v-15h36a1 1 0 0 1 1 1v14Z" fill="#FF820C"/><path d="M26 44.5a1 1 0 0 1-.706-1.708 1.024 1.024 0 0 1 1.413 0 1 1 0 1 0 1.415-1.413 3.072 3.072 0 0 0-4.242 0A3 3 0 0 0 26 46.5a1 1 0 0 1 .707 1.708 1.024 1.024 0 0 1-1.413 0 1 1 0 1 0-1.415 1.413A3 3 0 1 0 26 44.5Zm10-2a1 1 0 1 0 0-2h-4a1 1 0 0 0-1 1v8a1 1 0 0 0 1 1h4a1 1 0 1 0 0-2h-3v-2h2a1 1 0 1 0 0-2h-2v-2h3Z" fill="#FF820C"/></svg>