<svg width="60" height="60" fill="none" xmlns="http://www.w3.org/2000/svg"><g clip-path="url(#a)" fill="#FF9128"><path d="M2.25 30.003C1.949 11.565 20.937-2.28 38.393 3.51a1.069 1.069 0 0 0 .643-2.038C15.642-6.273-7.201 17.969 2.144 40.854a1.068 1.068 0 0 0 1.99-.776A27.646 27.646 0 0 1 2.25 30.003Zm7.945 19.447a1.047 1.047 0 0 0-1.674.227l.026-.569 4.572-.21a1.069 1.069 0 0 0-.098-2.136l-5.546.257a1.13 1.13 0 0 0-1.018 1.017l-.254 5.546a1.068 1.068 0 1 0 2.134.099l.14-3.032a22.857 22.857 0 0 0 4.492 3.929 1.069 1.069 0 0 0 1.22-1.755 27.912 27.912 0 0 1-3.994-3.373Zm47.42-31.017a1.068 1.068 0 0 0-1.97.825c9.305 22.04-12.344 44.96-34.877 36.94a1.068 1.068 0 0 0-.712 2.013c24.272 8.642 47.582-16.055 37.56-39.778Zm-12.8-11.944a27.98 27.98 0 0 1 4.866 3.89 1.042 1.042 0 0 0 1.642-.198l-.023.503-4.572.21a1.067 1.067 0 1 0 .048 2.136c.032.01 5.556-.261 5.597-.256a1.122 1.122 0 0 0 1.017-1.018l.254-5.545a1.069 1.069 0 0 0-2.134-.099l-.14 3.026a1.042 1.042 0 0 0-.178-.27 30.105 30.105 0 0 0-5.236-4.187 1.069 1.069 0 0 0-1.141 1.808Zm-14.79 16.677a6.768 6.768 0 0 1 6.354 4.328 1.068 1.068 0 0 0 1.991-.773 8.892 8.892 0 0 0-8.345-5.692c-11.902.492-11.902 17.456 0 17.947a8.928 8.928 0 0 0 8.83-7.414 1.069 1.069 0 0 0-2.105-.363c-1.58 8.142-13.397 7.097-13.562-1.196a6.844 6.844 0 0 1 6.837-6.837Z"/><path d="m21.634 47.488 3.223-2.263a1.82 1.82 0 0 1 2.599.57l2.104 3.621a1.073 1.073 0 0 0 .951.531 19.928 19.928 0 0 0 9.956-2.936 1.068 1.068 0 0 0 .503-1.003l-.341-3.921a1.813 1.813 0 0 1 1.791-1.968l4.198-.01a1.068 1.068 0 0 0 .935-.556 19.98 19.98 0 0 0 2.427-9.55c.034-.563-.042-1.22-.627-1.47l-3.564-1.666a1.813 1.813 0 0 1-.799-2.531l2.083-3.654a1.068 1.068 0 0 0-.017-1.085 20.054 20.054 0 0 0-7.515-7.145 1.073 1.073 0 0 0-1.125.065l-3.223 2.263a1.819 1.819 0 0 1-2.599-.57l-2.104-3.62a1.133 1.133 0 0 0-.95-.531 19.927 19.927 0 0 0-9.957 2.935 1.067 1.067 0 0 0-.503 1.003l.342 3.922a1.817 1.817 0 0 1-1.792 1.968l-4.198.01a1.068 1.068 0 0 0-.936.558c-.448 1.145-2.093 3.079-.498 3.853 1.429.438 1.525-1.387 2.086-2.275l3.557-.01a3.97 3.97 0 0 0 3.909-4.291l-.285-3.25a17.8 17.8 0 0 1 7.7-2.262l1.78 3.063a3.944 3.944 0 0 0 2.553 1.866c2.163.616 4.158-1.437 5.792-2.496a17.916 17.916 0 0 1 5.807 5.53c-.926 1.844-2.912 4.021-2.102 6.228.556 2.197 3.3 2.872 5.046 3.773a17.862 17.862 0 0 1-1.876 7.788l-3.557.01a3.972 3.972 0 0 0-3.909 4.29l.284 3.25a17.799 17.799 0 0 1-7.7 2.26l-1.78-3.062a3.946 3.946 0 0 0-2.553-1.865c-2.161-.615-4.159 1.436-5.792 2.495a17.913 17.913 0 0 1-5.807-5.53l1.762-3.09a3.968 3.968 0 0 0-1.745-5.528l-2.961-1.383c.008-.706.055-1.411.14-2.112a1.069 1.069 0 1 0-2.12-.26 19.81 19.81 0 0 0-.145 3.124 1.07 1.07 0 0 0 .614.9l3.564 1.666a1.813 1.813 0 0 1 .799 2.532l-2.083 3.653a1.068 1.068 0 0 0 .017 1.085c1.835 3 4.427 5.464 7.515 7.145a1.072 1.072 0 0 0 1.125-.064h.001Z"/></g><defs><clipPath id="a"><path fill="#fff" d="M0 0h60v60H0z"/></clipPath></defs></svg>