<svg width="60" height="60" fill="none" xmlns="http://www.w3.org/2000/svg"><path d="M55.714 6.183h-8.571V5.106a4.317 4.317 0 0 0-1.255-3.045 4.275 4.275 0 0 0-6.061 0 4.317 4.317 0 0 0-1.256 3.045v1.077H21.49V5.106a4.317 4.317 0 0 0-1.256-3.045 4.275 4.275 0 0 0-6.06 0 4.317 4.317 0 0 0-1.256 3.045v1.077H4.286a4.28 4.28 0 0 0-3.03 1.262A4.32 4.32 0 0 0 0 10.488v44.183a4.32 4.32 0 0 0 1.257 3.044 4.28 4.28 0 0 0 3.029 1.262h51.428a4.28 4.28 0 0 0 3.03-1.262A4.32 4.32 0 0 0 60 54.67V10.49a4.32 4.32 0 0 0-1.257-3.044 4.28 4.28 0 0 0-3.029-1.262Zm2.143 48.488a2.16 2.16 0 0 1-.628 1.522 2.14 2.14 0 0 1-1.515.631H4.286a2.14 2.14 0 0 1-1.515-.631 2.16 2.16 0 0 1-.628-1.522V18.64h55.714v36.03Zm0-38.185H2.143V10.49c0-.571.226-1.119.628-1.522a2.14 2.14 0 0 1 1.515-.631h12.857a1.08 1.08 0 0 0 0-2.153H15.06V5.107c0-.57.226-1.119.628-1.522a2.138 2.138 0 0 1 3.03 0c.402.403.628.951.628 1.522v4.306a2.16 2.16 0 0 1-.628 1.522 2.14 2.14 0 0 1-1.515.631 1.07 1.07 0 0 0-.758.315 1.08 1.08 0 0 0 .758 1.838 4.28 4.28 0 0 0 3.03-1.262 4.321 4.321 0 0 0 1.256-3.044V8.337h21.368a1.08 1.08 0 0 0 0-2.153h-2.143V5.107c0-.57.226-1.119.628-1.522a2.138 2.138 0 0 1 3.03 0c.402.403.628.951.628 1.522v4.306a2.16 2.16 0 0 1-.628 1.522 2.14 2.14 0 0 1-1.515.631c-.284 0-.556.114-.758.315a1.08 1.08 0 0 0 .758 1.838 4.28 4.28 0 0 0 3.03-1.262 4.32 4.32 0 0 0 1.256-3.044V8.337h8.571a2.14 2.14 0 0 1 1.515.63c.402.404.628.952.628 1.523v5.996Z" fill="#FF820C"/><path d="M34.296 11.335h-8.571a1.07 1.07 0 0 0-.758.315 1.079 1.079 0 0 0 .758 1.838h8.571a1.079 1.079 0 0 0 0-2.153ZM10.178 44.313a1.08 1.08 0 0 0 0 2.153h9.148c.284 0 .557-.113.758-.315.2-.202.314-.476.314-.761V30.07c0-.285-.113-.56-.314-.761a1.069 1.069 0 0 0-.758-.315h-9.148c-.284 0-.556.113-.757.315a1.079 1.079 0 0 0 .757 1.838h8.077v5.507h-8.077c-.284 0-.556.113-.757.315a1.08 1.08 0 0 0 .757 1.838h8.077v5.505h-8.077Zm15.247 2.153h9.15c.284 0 .556-.113.757-.315a1.08 1.08 0 0 0 .314-.761v-7.66c0-.285-.113-.559-.314-.76a1.069 1.069 0 0 0-.757-.316h-8.079v-5.507h8.079a1.08 1.08 0 0 0 0-2.153h-9.15a1.07 1.07 0 0 0-.758.315 1.079 1.079 0 0 0-.314.761v15.32a1.076 1.076 0 0 0 1.072 1.076Zm1.071-7.658h7.007v5.505h-7.007v-5.505Zm14.177 5.505a1.07 1.07 0 0 0-.757.316 1.08 1.08 0 0 0 .757 1.837h9.148c.284 0 .557-.113.758-.315.2-.202.314-.476.314-.761v-7.66c0-.285-.113-.559-.314-.76a1.069 1.069 0 0 0-.758-.316h-8.076v-5.507h8.076a1.079 1.079 0 0 0 0-2.153h-9.148a1.07 1.07 0 0 0-.757.315 1.08 1.08 0 0 0-.314.761v7.66c0 .286.113.56.314.762.2.202.473.315.757.315h8.077v5.505h-8.077Z" fill="#FF820C"/></svg>