<svg xmlns="http://www.w3.org/2000/svg" width="48" height="48"><path fill="#dd2c00" d="M9.068 26c.323 3.018 2.001 6.973 4.831 10.412 2.448 2.974 5.823 5.512 10.098 6.588H24V26H9.068z"/><path fill="#263238" d="M24.001 5.006c4.938.081 9.877 1.017 14.817 2.807l.172.063V25c-.009 3.1-1.747 7.582-4.897 11.412C31.646 39.387 28.273 41.924 24 43h-.003c-4.273-1.076-7.647-3.613-10.093-6.588C10.753 32.582 9.015 28.1 9.006 25V7.876l.172-.063c4.94-1.79 9.879-2.726 14.817-2.807h.006m.008-1h-.013c-5.042.082-10.136 1.047-15.158 2.867l-.174.063-.658.24V25c.011 3.547 2.022 8.275 5.125 12.047 2.884 3.505 6.556 5.899 10.622 6.922l.12.03h.248l.123-.03c4.065-1.023 7.738-3.417 10.622-6.922 3.103-3.773 5.114-8.5 5.125-12.044V7.176l-.658-.24-.172-.063c-5.024-1.821-10.119-2.785-15.143-2.867h-.009z"/><path fill="#ffd740" d="M24 43c4.275-1.076 7.65-3.613 10.098-6.588 3.151-3.83 4.89-8.312 4.899-11.412H24v18z"/><path fill="#263238" d="M26.114 33.969c.224-.172.724-.335 1.008-.452-.008-.416-.183-.807-.079-1.149.19-.624.618-.898 1.044-.945.027.009.051.06.025.075-.239.22-.327.526-.376.872-.019.134-.038.53.085.813a8.11 8.11 0 0 1 1.061-.382c.021-.414.088-.82.209-1.117.24-.585.767-1.045 1.299-.781.028.014.05.069.021.079-.331.119-.544.458-.733.841-.056.113-.243.737-.027.866l.011.007c.381-.075.444-.042.854-.076.071-.407.248-.746.408-1.017.243-.454.852-.816 1.41-.49.03.018.048.076.015.083a1.238 1.238 0 0 0-.771.542c-.072.104-.42.59-.244.781l.06-.002c.328-.01.564.054.919.118.101-.24.193-.276.299-.406.377-.455 1.034-.615 1.251-.181.021.024.026.084-.002.082-.2.03-.527.127-.692.328a1.264 1.264 0 0 0-.248.371c.444.337.704.605.822 1.068.021.084.069.542-.098.308-.725-.891-1.702-1.085-3.178-.949-1.574.146-2.296.369-3.878 1.203.872.765-.438 1.513-.651.395-.767 1.139-1.576-.296-.539-.505-1.004-.999.43-1.462.715-.38zm2.685-4.932c.566-.186 1.186-.379 1.502-.447.059-.91.927-2.034 1.958-1.641.038.014.066.069.028.079-.265.072-1.108.869-.819 1.371.211.011.789.001.972.01.228-1.004 1.105-1.703 2.12-1.249.039.018.063.076.021.083-.398.065-1.3.689-1.197 1.212.186.012.683.183 1.011.354.118-.241.25-.341.376-.47.44-.455 1.341-.487 1.594-.052.025.024.031.084-.002.083-.389-.013-.729.041-1.052.328-.049.043-.16.2-.275.414.315.166.67.497.738.811.051.153.085.286.052.445-.009.042-.095.001-.123-.03-.832-.891-2.67-1.446-4.451-1.227-1.191.146-2.349.46-3.32.883.325-.286.616-.607.867-.957zm-2.625 2.028a3.776 3.776 0 0 0-.231.223c.429.565-.244 1.03-.443.453-.504.532-.903-.086-.573-.345a5.93 5.93 0 0 0 1.247-.331zm-.29 7.653c.119-.128.406-.375.551-.488-.443-.694-.195-1.569.233-1.631.022.009.047.057.028.073-.116.165-.177 1.071.166 1.274.171-.119.506-.345.653-.394-.251-.828.19-1.939 1.028-1.759.023.013.047.067.027.077-.693.345-.695 1.382-.511 1.505.275-.073.587-.193.889-.226.133-1.102 1.129-1.6 1.623-1.316.024.016.045.072.021.079-.278-.161-1.316.891-.976 1.2.244-.009.52.091.793.153.117-.608.993-1.12 1.356-.732.02.023.031.08.01.079a1.072 1.072 0 0 0-.834.931c.701.322.625.995.507.821-.656-.861-2.066-.718-3.134-.497-.622.128-1.5.713-1.87 1.125 1.127.524.1 1.49-.371.394-.78 1.344-1.541.122-.636-.247-1.086-.829.07-1.391.447-.421z"/><path fill="#ffd740" d="M24.005 5.046v-.04c-4.94.081-9.881 1.017-14.824 2.807l-.172.063s-.021 14.313 0 17.124h-.003c.001.317.032.657.069 1H24v-1h.009V5.014l-.004.032z"/><path fill="#263238" d="M11.542 15.794c.256-.159.514-.306.776-.442-.038-.401-.083-1.026.028-1.365.202-.619.783-1.132 1.463-1.018.037.006.072.053.038.07-.384.198-.687.491-.857.905-.051.122-.24.946.04 1.014.03.007.059.012.089.014a12.63 12.63 0 0 1 1.548-.54c-.002-.401.015-.962.153-1.26.27-.585.929-1.014 1.639-.808.038.011.071.062.034.075-.423.144-.77.392-.989.779-.065.114-.338.904-.049 1.01a.098.098 0 0 0 .016.005c.49-.107.997-.193 1.528-.262.063-.399.171-.922.36-1.197.392-.571 1.187-.956 1.936-.692.04.014.068.069.026.078-.49.113-.913.338-1.215.713-.086.106-.487.834-.246 1.002l.078-.008a9.167 9.167 0 0 1 1.373-.022c.114-.241.245-.472.376-.606.458-.472 1.478-.636 1.79-.236.03.021.04.078.003.079-.434.017-.883.08-1.221.381a1.845 1.845 0 0 0-.349.446c.704.112 1.291.351 1.476.787.061.145.104.27.083.425-.005.041-.094.008-.124-.02-.892-.802-2.296-.892-4.195-.567-1.912.327-3.523.884-5.233 1.681.692.762-.395 1.351-.748.547-.828.975-1.605-.439-.457-.608-.654-1.004.656-1.039.83-.36zm.231 7.744c.228-.17.519-.312.754-.459-.244-.377-.38-.925-.292-1.27.161-.628.556-.915 1.047-.889.034.005.067.05.037.069-.344.215-.399.504-.496.939-.052.234.077.628.254.762.442-.232.428-.201.892-.364-.137-.408-.101-.944.062-1.286.261-.55.696-.747 1.143-.658.034.009.064.057.033.07-.341.145-1.041.686-.587 1.717.425-.148.449-.171.986-.285.042-.402.053-.885.215-1.169.336-.589 1.105-.856 1.462-.717.037.012.065.066.027.077-.203.134-.462.232-.724.62-.141.209-.402.688-.327 1.008.388-.056.89-.077 1.317-.067.095-.246.277-.55.391-.69a.698.698 0 0 1 .294-.208v1.451a8.588 8.588 0 0 0-2.307.224c-1.738.406-2.188.713-3.735 1.526.929.571.029 1.44-.543.579-1.01 1.129-1.656-.327-.611-.543-.784-.936.511-1.439.708-.437zm-.452-3.857c.26-.153.618-.27.883-.401-.029-.402-.084-.768.036-1.105.217-.614.543-.926 1.076-.866.036.007.07.055.037.071-.388.19-.288.452-.468.862-.054.121-.189.611.088.685.03.008.059.013.089.017.496-.201.322-.18.838-.311.007-.384.036-.921.175-1.203.271-.555.792-.834 1.273-.715.036.011.114.108.079.12-.381.12-1.038.878-.767 1.478.336-.055.554-.159 1.147-.235.073-.398.217-.8.412-1.071.405-.563 1.041-.67 1.421-.507.04.015.09.117.048.126-.492.102-.509.058-.821.426-.168.198-.514.725-.264.967.426-.03.715-.078 1.179-.039.12-.238.208-.56.342-.692C19 17 19 17 19.652 17.091c.03.022.039.079.002.079-.434.007-.595.131-.94.425a1.85 1.85 0 0 0-.205.253h-.249v.799a9.751 9.751 0 0 0-2.222.067c-1.919.284-2.625.711-4.209 1.469.674.777-.426 1.317-.76.506-.851.956-1.594-.475-.443-.618-.628-1.021.514-1.286.695-.39zM24 33H11.557a24.585 24.585 0 0 0 2.343 3.412c.165.2.344.392.517.588H24v-4zm-2-7H9c.003 1.172.256 2.543.737 4H22v-4z"/><path fill="#dd2c00" d="m38.997 7.876-.172-.063c-4.942-1.79-9.883-2.726-14.824-2.807L24 5.014V25h14.997v-.001c.021-2.81 0-17.123 0-17.123z"/><path fill="#263238" d="M30 17h9v4h-9zm-6-8h15v4H24z"/><path fill="#ffd740" d="M38.657 13.271c-4.867-1.763-9.798-2.697-14.656-2.777-4.858.08-9.789 1.015-14.655 2.777l-.843.306V7.521l.5-.184C13.979 5.536 19.021 4.582 23.99 4.5c4.991.082 10.033 1.036 15.008 2.837l.502.184v6.056l-.843-.306z"/><path fill="#263238" d="M24.004 5c4.94.081 9.881 1.017 14.824 2.807L39 7.87v4.994l-.172-.063c-4.942-1.79-9.883-2.726-14.824-2.807l-.005.04v-.04c-4.94.081-9.881 1.017-14.824 2.807l-.172.063V7.87l.172-.063C14.117 6.017 19.058 5.081 23.999 5h.005m.008-1h-.013c-5.043.083-10.14 1.047-15.164 2.867l-.175.063-.657.24v7.123l1.342-.489.172-.063c4.809-1.742 9.683-2.666 14.484-2.747 4.801.08 9.674 1.005 14.486 2.747l.171.062 1.342.49V7.17l-.658-.24-.172-.062C34.144 5.047 29.047 4.083 24.02 4h-.008z"/><path fill="#263238" d="M11.197 8.003c.359-.113.718-.226 1.082-.328.134-.037.269-.072.406-.101a.893.893 0 0 1 .439.003l.048.023a.266.266 0 0 1 .103.115c.037.09.051.183.062.279.02.207.02.416.004.624a1.475 1.475 0 0 1-.103.483.829.829 0 0 1-.114.168.982.982 0 0 1-.117.106 1.429 1.429 0 0 1-.276.16c-.234.105-.48.178-.724.255-.427.137-.85.285-1.273.432l-.001.76-.637.251V8.357c.367-.119.733-.238 1.101-.354zm-.463 1.707c.426-.143.851-.286 1.279-.423.13-.042.263-.08.39-.132l.097-.054.044-.032.039-.036.034-.04.029-.044.034-.079a1.063 1.063 0 0 0 .002-.521l-.03-.065-.032-.04-.04-.035-.048-.023-.05-.014-.05-.005-.051.001c-.129.015-.256.053-.379.089-.425.126-.846.267-1.268.403v1.05zm5.376-3.014c.285-.052.571-.099.86-.124.095-.008.187-.012.282-.006a.833.833 0 0 1 .132.026.545.545 0 0 1 .101.047c.03.021.053.041.077.067.023.031.04.059.057.093.02.049.034.096.045.147.033.175.041.352.05.529.009.201.01.401.004.602l-.011.253c-.01.154-.019.311-.055.462a1.056 1.056 0 0 1-.034.109.773.773 0 0 1-.09.155l-.095.095-.121.08a1.392 1.392 0 0 1-.149.064c-.207.065-.422.108-.633.151-.434.089-.869.172-1.304.255-.211.04-.421.08-.632.109a1.738 1.738 0 0 1-.175.013l-.132-.013a.632.632 0 0 1-.098-.035l-.072-.055-.055-.081-.086-.429-.002-1.154a2.49 2.49 0 0 1 .056-.403l.035-.114a.915.915 0 0 1 .092-.168l.097-.107.079-.064c.086-.058.173-.102.272-.139l.475-.141c.34-.087.684-.159 1.03-.224zm-.331.592-.683.161a1.45 1.45 0 0 0-.16.058l-.051.027-.048.033-.044.036-.039.041-.036.046-.03.048a.717.717 0 0 0-.049.134c-.036.164-.039.334-.042.502-.002.176-.005.357.031.531l.022.068.034.064.048.055.059.043.067.03.072.018.076.006c.047-.002.091-.005.138-.011.264-.035.528-.09.789-.142.217-.043.434-.085.649-.141.047-.012.09-.027.136-.043l.071-.034.064-.041.057-.049.049-.056.041-.061.031-.068.02-.07c.036-.189.032-.382.03-.573-.002-.1-.004-.201-.014-.301l-.012-.08a.879.879 0 0 0-.05-.158l-.025-.045-.031-.041-.038-.037-.044-.03-.047-.022-.05-.012-.11-.012a2.104 2.104 0 0 0-.336.026c-.182.029-.363.065-.545.1zm4.364-1.074c.33-.025.66-.046.992-.056a5.09 5.09 0 0 1 .214-.002.526.526 0 0 1 .29.098.452.452 0 0 1 .119.142.674.674 0 0 1 .05.136c.02.108.022.221.024.33.002.137.002.274-.01.41a.85.85 0 0 1-.026.159l-.021.055a.566.566 0 0 1-.066.101l-.06.052a.56.56 0 0 1-.087.047.94.94 0 0 1-.138.038l-.361.073.356.198a.792.792 0 0 1 .129.109l.043.051a.957.957 0 0 1 .127.246c.05.153.076.312.081.472-.21.009-.421.018-.63.029a1.774 1.774 0 0 0-.063-.331l-.048-.123-.032-.058-.037-.056-.044-.049-.055-.043-.064-.034a.904.904 0 0 0-.117-.027c-.084-.01-.169-.003-.253.003-.407.03-.814.062-1.22.101l-.153.014v.765l-.638.07V6.376a48.254 48.254 0 0 1 1.698-.162zm-1.06 1.581c.423-.039.847-.075 1.271-.107.146-.011.292-.022.437-.037a1.08 1.08 0 0 0 .124-.023l.049-.016.047-.022.043-.027.038-.034.032-.04.024-.043a.691.691 0 0 0 .03-.101c.018-.117.019-.235.008-.353a.645.645 0 0 0-.031-.128l-.023-.042-.031-.04-.038-.034-.043-.026-.046-.02-.048-.012a.73.73 0 0 0-.123-.011c-.208.002-.418.02-.625.035-.365.027-.73.06-1.095.092v.989zm4.49.638c.24.002.481.002.722.002.165 0 .333.006.497-.011a.498.498 0 0 0 .199-.054l.037-.028.031-.035.024-.039.016-.041.019-.084.004-.126-.022-.14-.011-.035-.019-.037-.028-.035-.039-.032-.042-.023-.09-.031-.162-.021-.196-.003-1.331-.005c-.13-.001-.262-.002-.39-.023-.034-.008-.067-.015-.099-.03l-.04-.022-.036-.026-.033-.03-.03-.034-.026-.038a.65.65 0 0 1-.063-.16 2.043 2.043 0 0 1-.032-.442c.005-.179.014-.367.092-.532a.414.414 0 0 1 .057-.08c.089-.081.215-.112.332-.136.124-.024.25-.027.376-.031.288-.006.578-.005.867-.006.479.005.959.012 1.438.023v.417a75.491 75.491 0 0 0-1.904-.02c-.144.002-.289.003-.432.017a.932.932 0 0 0-.092.017l-.052.024-.046.04-.03.047-.018.048-.012.087c-.002.072-.002.143.004.215l.009.048.018.053.037.054.062.043.065.012c.666.011 1.333.029 1.998.053l.082.01a.665.665 0 0 1 .286.142.445.445 0 0 1 .086.121c.06.145.073.311.078.466.002.18-.007.362-.058.536l-.028.075-.034.057a.547.547 0 0 1-.089.091.6.6 0 0 1-.2.089c-.107.021-.22.027-.33.034-.327.017-.653.016-.979.014-.513.003-1.025.01-1.538.019-.002-.148-.002-.296-.002-.443.346-.009.691-.016 1.037-.019h.06v-.002zm4.383.579c-.269-.023-.538-.045-.804-.083a2.244 2.244 0 0 1-.346-.075.905.905 0 0 1-.164-.075.61.61 0 0 1-.098-.076.613.613 0 0 1-.076-.094.723.723 0 0 1-.051-.114 2.041 2.041 0 0 1-.056-.447c-.012-.37-.015-.74.001-1.11l.005-.092c.012-.17.027-.339.132-.483a.415.415 0 0 1 .119-.101c.131-.068.288-.089.434-.1.155-.01.31-.009.466-.006.31.008.621.024.93.05.445.039.891.08 1.335.127v.487a58.531 58.531 0 0 0-1.769-.144c-.191-.012-.385-.025-.576-.014l-.094.012-.064.019-.059.028-.055.038-.047.047-.035.054-.028.06a1.523 1.523 0 0 0-.031.116 3.364 3.364 0 0 0-.031.567c.002.156.004.314.032.468.008.039.019.074.031.112l.03.058.039.053.047.046.054.038.059.031.063.023c.052.012.102.023.155.03.175.024.353.039.531.054.6.047 1.199.107 1.8.172l.005.448v.047a59.79 59.79 0 0 0-1.128-.109c-.252-.023-.505-.041-.756-.062zM32 7.771c.491.085.98.18 1.469.276V6.949c.228.047.455.098.683.149v2.834a84.154 84.154 0 0 0-.683-.159V8.656a59.055 59.055 0 0 0-2.263-.416v1.103c-.228-.035-.455-.07-.683-.102V6.463c.228.029.456.058.683.091v1.085l.794.132zm5.195.185c.241.078.483.157.724.238v.466a56.354 56.354 0 0 0-2.127-.669l-.236-.071v.706c.521.152 1.04.308 1.558.474.228.073.456.149.684.225v.42a58.413 58.413 0 0 0-2.01-.626l-.233-.068v.755a76.138 76.138 0 0 1 2.379.74v.484a70.667 70.667 0 0 0-2.891-.871l-.112-.031v-2.84a51.59 51.59 0 0 1 2.264.668z"/><path fill="#ffd740" d="M24 31.5a6.508 6.508 0 0 1-6.5-6.5v-7.5h13V25c0 3.584-2.916 6.5-6.5 6.5z"/><path fill="#263238" d="M30 18v7a6 6 0 1 1-12 0v-7h12m1-1H17v8c0 3.86 3.14 7 7 7s7-3.14 7-7v-8z"/><path fill="#263238" d="M21.004 26.822c.058.011.188-.16.234-.253a.516.516 0 0 0 .026-.278c-.011-.024-.156.025-.234.025s-.128-.014-.233-.025c-.106-.012-.091-.249-.104-.38a6.38 6.38 0 0 1-.026-.987c.006-.091.025-.206.104-.253.104-.062.244-.045.363-.025.241.04.46.164.7.202.137.022.281.008.416-.025.112-.027.2-.117.311-.151.058-.018.128-.027.182 0 .187.095.317.291.519.354.247.077.518.041.778.051.207.007.418-.029.622 0 .095.014.241.034.26.126.027.133-.191.248-.156.38.054.197.291.3.39.48a.257.257 0 0 1 0 .228c-.034.064-.138.069-.182.126-.063.082-.069.194-.129.278a1.125 1.125 0 0 1-.234.228c-.19.145-.382.294-.596.405-.069.036-.2-.044-.233.025-.061.126-.12.289-.182.38-.062.09-.138.095-.182.151-.044.056-.109.159-.078.177.032.018.314.013.415 0 .102-.013.165-.023.196-.048.032-.025-.022-.11-.04-.281-.017-.172.472-.244.7-.38.256-.151.495-.331.752-.48.107-.062.246-.07.337-.152.045-.041.026-.117.026-.177 0-.144-.033-.286-.026-.43.003-.07.001-.153.052-.202a.169.169 0 0 1 .181-.026c.086.048.102.172.181.228.116.082.262.114.39.177.114.055.317.054.337.177.035.211-.114.414-.208.607-.047.098-.147.162-.207.253-.036.054-.033.131-.078.177-.114.117-.271.189-.389.303a.902.902 0 0 0-.207.278c-.026.059-.038.122-.078.178-.04.055-.119.072-.155.151-.037.079-.148.32-.052.303.095-.015.601-.104.622-.151.021-.048-.027-.17-.052-.329s.332-.274.519-.379c.102-.058.244-.03.337-.101.055-.044.025-.138.051-.202.043-.105.08-.218.156-.303.1-.113.277-.153.363-.278.095-.139.185-.315.155-.481-.022-.129-.198-.179-.285-.278-.069-.078-.151-.154-.181-.253-.043-.138-.075-.294-.026-.43.061-.17.229-.283.337-.43.091-.123.225-.231.26-.38.039-.174-.038-.354-.052-.531-.003-.034-.026-.079 0-.101.123-.104.253-.233.415-.253.146-.018.269.131.416.151.154.022.32.027.467-.025.049-.018.063-.116.026-.152-.096-.094-.323-.051-.363-.177-.034-.102.181-.133.233-.228.072-.132.139-.281.13-.43-.003-.051-.112-.052-.156-.025-.069.043-.067.151-.13.203a.27.27 0 0 1-.181.051c-.066-.005-.141-.026-.182-.076-.038-.046-.077-.144-.026-.177.117-.076.28-.04.416-.076.056-.015.133-.024.155-.076a.358.358 0 0 0 0-.278c-.016-.04-.087-.036-.129-.026-.061.016-.094.101-.156.101a.324.324 0 0 1-.234-.101.2.2 0 0 1-.026-.202c.047-.097.188-.131.234-.228.063-.132.109-.287.077-.43-.013-.06-.126-.08-.181-.051-.068.036-.064.138-.104.203-.055.088-.085.212-.182.253-.063.027-.165-.035-.181-.101-.026-.11.037-.224.078-.329a1.26 1.26 0 0 1 .182-.329c.078-.099.221-.144.285-.253.048-.081.08-.202.026-.278-.04-.055-.149-.011-.208.025-.049.03-.025.128-.077.152-.128.059-.292.011-.416.076-.097.051-.149.161-.208.253-.109.169-.115.473-.156.506-.046.038-.145.023-.181-.025-.051-.069.033-.19-.026-.253-.046-.05-.154-.043-.207 0-.064.051-.078.148-.078.228 0 .129.017.265.078.38.098.187.264.334.39.506.126.174.286.332.362.532a.536.536 0 0 1 0 .405c-.049.11-.162.237-.284.228-.168-.013-.274-.191-.415-.278-.135-.082-.258-.203-.416-.228-.342-.054-.692 0-1.038 0-.311 0-.625.041-.934 0a.759.759 0 0 1-.415-.177.592.592 0 0 1-.182-.38c-.01-.182.052-.365.13-.531a.67.67 0 0 1 .26-.304c.089-.051.232-.088.329-.051s.375.423.441.402c.065-.021.021-.349-.018-.452-.059-.153-.23-.25-.286-.405-.016-.045.055-.104.105-.101a.462.462 0 0 1 .26.126c.038.035.233.297.285.284.051-.013-.023-.395-.078-.511-.074-.157-.309-.275-.329-.313-.016-.033.005-.063.043-.066.089-.007.174.045.26.076.08.029.193.122.234.101.04-.02-.005-.149-.052-.202-.159-.182-.384-.301-.545-.481-.084-.094-.174-.204-.182-.329-.004-.077.083-.145.157-.177.128-.057.303-.085.422-.156.046-.026.015-.052-.035-.072a1.587 1.587 0 0 0-.596-.101c-.117 0-.225.066-.337.101-.078.024-.151.076-.233.076-.141 0-.312.018-.416-.076-.064-.058.012-.177.052-.253.04-.074.119-.121.182-.177.04-.036.178-.085.129-.101-.048-.016-.281-.007-.415.025a.698.698 0 0 0-.311.152c-.079.072-.063.225-.156.278-.177.101-.267.065-.452.151-.049.023-.142.145-.196.152-.241.032-.702-.088-.726-.051s.37.259.441.455c.032.088-.19-.036-.285-.025a1.256 1.256 0 0 0-.416.101c-.12.059-.216.16-.311.253-.087.085-.136.207-.234.278-.049.036-.139-.015-.172.034-.039.057-.053.19.016.194l.415.025c.078.005-.069.164-.026.228.033.049.126.024.182 0 .066-.03.094-.112.156-.152.071-.046.148-.105.233-.101.105.005.239.036.286.126.044.086-.061.184-.078.278-.018.1.05.234-.026.303-.222.204-.295.032-.622.43-.261.318-.145.145-.233.557-.017.081-.035.179-.104.228-.071.049-.184.067-.26.025-.143-.079-.242-.223-.337-.354-.054-.074-.024-.206-.104-.253a.461.461 0 0 0-.363-.025c-.088.029-.131.128-.182.203-.114.163-.201.341-.312.506-.089.131-.209.241-.285.38-.038.069-.021.157-.052.228-.087.194-.16.394-.26.582-.04.075-.139.12-.156.203-.02.092.015.271.052.278.038.007.188-.106.286-.152.101-.047.298-.095.311-.126.013-.031-.103-.135-.156-.203-.102-.133.123-.31.207-.455.03-.052.103-.073.13-.126.061-.119.069-.26.129-.38.078-.153.159-.312.286-.43.058-.053.168-.095.233-.051.114.079.14.236.208.355.053.092.127.176.156.278.024.089-.06.206 0 .278.075.091.217.115.337.126l.26.026.026.354c.01.135-.279.024-.416.051-.123.024-.241.075-.363.101-.119.025-.34-.066-.363.051-.099.497.024 1.012.052 1.518.007.136-.077.352.052.405l.256.104c.044.1.078.23.133.3a.288.288 0 0 0 .182.098zM24 10h1v8h-1zm-1 21h1v12h-1zm7-6h9v1h-9z"/></svg>