<svg width="454" height="121" fill="none" xmlns="http://www.w3.org/2000/svg"><path d="M54.463.59c.119 0 .254.025.368.049.128.027.282.065.457.113.351.096.81.237 1.36.414 1.103.356 2.595.87 4.366 1.505a431.597 431.597 0 0 1 13.163 5.002h.001l17.853 6.952.223.088.1.219 1.739 3.842.002.004c1.76 3.954 6.021 7.781 10.552 9.379h-.001c1.297.447 2.241.843 2.767 1.7.262.425.395.92.468 1.497.072.573.089 1.27.089 2.116 0 3.167-.673 8.356-1.647 13.656-.975 5.307-2.262 10.78-3.51 14.522-5.34 15.914-16.013 32.553-28.171 43.691-3.183 2.996-7.69 6.581-11.63 9.414-1.969 1.417-3.805 2.654-5.27 3.538a22.31 22.31 0 0 1-1.91 1.053 6.71 6.71 0 0 1-.728.301 2.1 2.1 0 0 1-.64.125.981.981 0 0 1-.324-.064 2.671 2.671 0 0 1-.259-.109c-.18-.085-.403-.206-.66-.352a50.758 50.758 0 0 1-1.994-1.226 231.749 231.749 0 0 1-5.887-3.933l-.01-.006C23.602 98.534 8.96 75.9 3.805 49.5v-.002c-.823-4.108-1.918-8.944-2.373-10.762-.467-1.867-.842-4.66-.842-6.18 0-1.192.102-2.123.793-2.845.331-.345.766-.609 1.293-.845.527-.237 1.185-.463 1.99-.715l.013-.005c4.593-1.324 8.76-4.955 10.703-9.28.385-.882.723-1.634 1.299-2.332.582-.706 1.378-1.323 2.638-2.023 2.491-1.384 6.98-3.186 15.7-6.653A522.384 522.384 0 0 1 47.974 2.8c1.747-.652 3.22-1.187 4.31-1.563a45.37 45.37 0 0 1 1.34-.445c.32-.099.604-.179.774-.198L54.43.59h.033ZM37.74 11.06l-17.28 6.689-2.004 3.83-.002.005c-1.369 2.55-2.252 4.07-3.467 5.284-1.216 1.214-2.735 2.098-5.289 3.464l-.003.002c-1.293.68-2.21 1.275-2.848 1.99-.62.697-1.009 1.544-1.168 2.789-.162 1.265-.084 2.927.231 5.231.315 2.3.86 5.199 1.616 8.926l.38 1.798c3.93 17.875 11.798 32.748 24.21 45.986l1.256 1.319c3.824 3.956 8.563 8.122 12.653 11.297 2.045 1.588 3.918 2.921 5.425 3.854.755.467 1.408.827 1.939 1.068.552.252.9.34 1.074.34.102 0 .382-.064.872-.262a19.15 19.15 0 0 0 1.692-.802 48.802 48.802 0 0 0 4.43-2.676c4.029-2.76 9.193-7.326 13.997-12.195 4.806-4.87 9.216-10.006 11.748-13.891 9.018-13.925 15.296-31.396 16.569-46.015l.517-6.12-5.076-2.922-.02-.011c-3.994-2.507-6.002-4.404-7.895-7.903l-.002-.005-2.28-4.289-17.007-6.69h-.003L55.008 4.374l-17.27 6.687Z" fill="#FF9128" stroke="#FF9128" stroke-width="1.18"/><g clip-path="url(#a)"><path d="M22.813 76.348c-5.008-8.829-8.376-18.021-8.376-22.936 0-2.457-.546-4.369-1.366-5.097-1.82-1.547-1.73-7.645.091-9.192.82-.728 3.642-1.274 6.191-1.365 4.28-.183 4.916-.547 8.285-4.278l3.642-4.096 9.832-.637c5.463-.364 15.751-.364 22.943 0l13.11.637 3.46 4.46c3.369 4.277 3.55 4.368 8.558 4.46 2.732 0 5.463.455 6.1 1.092 1.821 1.82 1.366 7.554-.82 9.465-1.547 1.366-1.82 2.367-1.365 5.097.637 4.005-3.46 15.473-8.649 23.937l-3.004 5.006h-5.736c-5.554 0-5.736-.09-5.736-2.275V78.35H53.676c-16.296 0-16.387 0-16.66 2.094-.274 1.729-.91 2.002-5.28 2.275l-5.1.273-3.823-6.644ZM36.65 66.063c1.366-2.002 2.094-2.275 7.193-2.275h5.645V54.23h9.104v4.824l-.091 4.733h5.644c5.008 0 5.827.273 7.102 2.275 1.365 2.185 1.912 2.276 6.282 1.82 7.738-.91 8.83-1.274 8.83-3.094 0-1.547-.636-1.638-7.738-1.183-7.465.455-7.738.364-7.738-1.547 0-1.275-.547-1.912-1.821-1.912-2.276 0-2.458-3.913-.547-8.646l1.366-3.186H38.017l1.457 2.73c.728 1.457 1.365 4.096 1.365 5.917 0 2.548-.364 3.185-1.82 3.185-1.275 0-1.821.637-1.821 1.912 0 1.91-.273 2.002-7.739 1.547-7.648-.546-7.739-.455-7.739 1.547 0 2.366 1.275 2.822 8.74 3.095 4.097.09 4.917-.182 6.191-2.185Z" fill="#100624"/><path d="M49.642 105.656c-6.647-4.824-15.478-13.652-20.12-19.841l-4.098-5.461 4.37-.455c3.733-.365 4.552-.82 4.735-2.458.273-2.002.728-2.093 7.556-2.093 5.918 0 7.193.273 7.193 1.365 0 1.638-2.55 7.008-3.733 7.736-.364.273-1.548 2.64-2.55 5.28l-1.911 4.732h25.583l-.546-2.002c-.365-1.184-1.821-4.915-3.278-8.374-3.642-8.555-3.55-8.737 2.276-8.737 2.731 0 5.554-.273 6.373-.546 1.093-.455 1.457.09 1.457 2.184 0 2.822.09 2.822 5.098 3.095l5.099.273-3.46 4.55c-6.1 8.192-18.209 19.751-24.582 23.482-.546.364-3.004-.91-5.462-2.73ZM19.506 60.33c0-3.458.183-4.824.365-2.912.182 1.82.182 4.733 0 6.37-.182 1.548-.365.092-.365-3.458Zm69.102 3.55c-.09-1.092-.455-3.368-.728-5.006-.364-2.548-.273-2.822.546-1.456.546.819.82 3.094.637 5.006-.182 1.82-.364 2.457-.455 1.456Zm-73.29-5.825c-.91-3.277-1.912-6.644-2.094-7.463-.364-1.366.091-1.639 2.823-1.639 2.458 0 3.095.273 2.549 1.183-.364.547-.91 4.005-1.184 7.464l-.455 6.37-1.639-5.915Zm75.384-.637c-.364-2.913-1.001-6.007-1.457-6.826-.819-1.457-.455-1.639 2.823-1.639 2.003 0 3.642.364 3.642.82 0 1.183-3.642 12.833-4.006 12.833-.182 0-.638-2.367-1.002-5.188Zm2.276-12.56c1.639-2.003-.364-4.096-4.006-4.096-2.367 0-4.279-1.456-12.29-9.557-5.19-5.279-9.833-9.556-10.197-9.556-.364 0-1.184 2.275-1.821 5.096-1.002 4.46-1.366 5.006-3.005 4.551-1.092-.273-5.462-.546-9.741-.546h-7.739l-1.184-4.55c-.637-2.458-1.638-4.551-2.184-4.551-.638 0-5.281 4.186-10.38 9.283-5.098 5.097-10.196 9.375-11.289 9.557-2.731.455-4.643 2.093-4.097 3.64.273.729-.182 1.184-1.183 1.184-1.184 0-1.821-.91-2.276-3.368-.82-5.188-.82-5.188 3.368-8.191 2.185-1.456 5.19-4.642 6.646-6.917 2.55-3.914 3.096-4.278 17.208-9.83 8.011-3.095 15.204-5.643 15.932-5.643.728.09 7.739 2.64 15.477 5.643 13.384 5.279 14.203 5.734 16.206 9.192 1.093 2.003 4.097 5.188 6.646 7.1 4.28 3.185 4.552 3.55 4.097 6.553-.273 1.729-.546 3.913-.546 4.824 0 1.092-.728 1.547-2.367 1.547-2.003 0-2.276-.182-1.275-1.365Z" fill="#FF9F44"/><path d="m39.445 96.918-2.094-2.184 2.458-6.553c1.275-3.55 2.822-6.462 3.278-6.462.455 0 .546-.364.273-.91-.273-.456-.091-.91.455-.91s.728-.365.455-.91c-.273-.456-.091-.91.455-.91.547 0 .82-.365.547-.82-.547-.728 1.365-1.911 3.186-1.911 1.457 0 .82 3.64-1.457 8.1l-2.185 4.46 3.369.546c3.824.637 15.66.728 15.66.182 0-.182-.82-2.275-1.822-4.642-2.184-5.097-2.367-8.646-.455-8.646 1.366 0 4.917 7.008 6.92 13.743.637 1.911 1.638 3.55 2.367 3.55 1.82 0 1.456 1.274-1.275 3.822-1.912 1.73-3.004 2.185-4.37 1.639-2.64-1.093-21.76-1.093-22.852 0-.637.637-1.548.272-2.913-1.184Zm49.8-46.418c-.819-1.456-.455-2.184 2.094-4.368 4.826-4.096 5.918-3.55 4.735 2.64-.456 2.183-1.093 2.82-3.278 3.094-1.912.364-2.913 0-3.55-1.366Zm-75.839.455c-1.001-1.729-1.638-8.373-.819-8.373.546 0 2.367 1.365 4.097 3.004 2.731 2.548 3.095 3.276 2.094 4.55-1.184 1.639-4.552 2.094-5.371.82Zm8.376-10.193c-1.456-.455-2.549-.455-2.64-.182 0 .364-.364-.091-.728-1.093-.546-1.274 1.548-3.731 9.923-11.923C34.164 21.922 39.81 16.916 40.81 16.28c1.821-.91 2.094-.638 3.733 3.822 1.002 2.549 2.094 6.007 2.367 7.555.547 2.457.365 2.912-1.456 3.458-3.369.82-4.37.637-4.37-1.001 0-1.365-.092-1.365-1.64 0-.91.91-2.457 1.547-3.459 1.547-1.092 0-3.46 2.003-5.827 5.006-4.37 5.188-4.46 5.279-8.376 4.096Zm56.72-4.096c-3.004-3.732-4.643-5.006-6.282-5.006-1.274 0-3.277-.91-4.46-2.002l-2.186-2.003-.546 2.003c-.455 2.002-3.369 2.821-4.28 1.274-.91-1.456 3.46-15.655 4.826-15.655.364 0 5.736 5.188 12.018 11.468C92.978 42.31 91.704 40.762 88.699 40.762c-1.365 0-3.368.273-4.37.546-1.366.364-2.731-.728-5.827-4.642Z" fill="#FFAD5E"/><path d="M30.158 71.07c-9.832-.728-11.562-1.638-8.74-4.46.91-.91 3.55-1.274 8.65-1.274 4.278 0 7.374-.364 7.374-.91 0-.455 1.456-.91 3.186-.91 2.185 0 3.187.455 3.187 1.365 0 .728-.546 1.365-1.275 1.365-.728 0-2.185 1.274-3.277 2.73-1.093 1.548-2.64 2.64-3.46 2.549-.82-.091-3.368-.273-5.645-.455Zm38.694-2.457c-1.002-1.457-2.367-2.367-3.733-2.367-1.548 0-2.185-.546-2.185-1.82 0-1.457.637-1.82 3.186-1.82 2.185 0 3.187.454 3.187 1.365 0 1 1.912 1.365 9.742 1.547 8.193.273 9.832.546 10.105 1.73.365 2.002-.91 2.366-10.56 3.094-8.103.637-8.195.637-9.742-1.73ZM35.62 58.965c0-1.183-.637-1.82-1.82-1.82-1.276 0-1.822-.638-1.822-2.185 0-1.73-.637-2.275-3.095-2.73-1.639-.364-3.642-.364-4.461 0-.82.273-2.094.182-2.914-.273-1.274-.729-1.274-1.093.456-3.277 1.456-1.82 2.73-2.457 4.825-2.366 2.458 0 3.46.819 6.92 5.46 2.184 3.004 4.096 5.28 4.278 5.097.182-.182-.637-2.639-1.912-5.552-1.274-2.821-2.276-5.37-2.276-5.551 0-.273 9.287-.456 20.576-.456 19.21 0 20.576.092 19.938 1.639-.364.819-.91 2.275-1.092 3.185-.455 1.366-2.003 1.548-16.752 1.548-13.839 0-16.297.182-16.297 1.365 0 .728.455 1.365.91 1.365.547 0 .911 1.456.911 3.186 0 3.003-.182 3.185-3.187 3.185-2.549 0-3.186-.364-3.186-1.82Zm38.602-5.643c.82-1.183 2.185-3.186 3.096-4.55 2.003-3.277 5.098-3.277 8.103-.092l2.276 2.548-4.644.274c-3.914.273-4.643.546-4.643 2.093 0 1.365-.637 1.73-2.822 1.73-2.822 0-2.822 0-1.366-2.003Zm-56.81-3.732c0-1.73 1.456-2.821 2.184-1.638.273.455-.09 1.274-.819 1.911-1.092.91-1.366.91-1.366-.273Z" fill="#959596"/><path d="M43.542 91.093c-4.006-.455-4.006-.819.364-9.556 2.55-5.097 4.461-6.736 4.461-3.914 0 1.092 1.184 1.365 5.463 1.365 4.916 0 5.462-.182 5.462-1.911 0-1.456.456-1.82 2.094-1.548 1.093.183 1.912.82 1.821 1.457-.182.546.182 1.092.82 1.092.546 0 .819.273.546.546-.273.273.273 2.73 1.183 5.37 2.823 8.01 3.187 7.736-8.467 7.554-5.644-.09-11.835-.273-13.747-.455Zm45.43-40.957c-.728-1.911.729-3.459 2.55-2.73 2.002.728 1.82 2.184-.273 3.276-1.366.728-1.821.637-2.277-.546Zm-76.112-.364c0-.273.82-1.274 1.73-2.093 1.457-1.275 2.094-1.366 3.733-.546 1.548.819 1.73 1.274.82 2.366-1.002 1.274-6.283 1.547-6.283.273Zm68.01-10.194c-1.002-2.64-.82-3.913.364-2.73.546.546.82 1.73.637 2.64-.273 1.638-.364 1.638-1.001.09Zm-55.264-.637c-1.092-.728-1.092-.91.273-1.456 1.912-.728 3.187.182 1.912 1.456-.455.455-1.365.546-2.185 0Zm8.194-8.01c0-.363 2.185-2.82 4.826-5.46l4.916-4.824 1.457 3.914c2.002 5.188 1.911 5.825-.456 6.553-3.004.728-10.743.637-10.743-.182Zm27.86 0c-.274-.454.182-2.912 1-5.551l1.549-4.642 4.825 4.733c2.64 2.64 4.825 5.097 4.825 5.46 0 1.002-11.562.911-12.2 0Z" fill="#FFC182"/><path d="M44.725 81.355c0-.092.456-1.548 1.002-3.186l1.001-2.822h7.375c4.097 0 8.103.456 8.831.91.728.456 1.001.91.455.91-.455 0-.273.456.455.911.91.546 1.002.91.274.91-.638 0-1.184.637-1.184 1.365 0 1.093-1.639 1.366-9.104 1.366-5.008 0-9.105-.182-9.105-.364Z" fill="#FFDFBD"/><path d="M21.782 70.16c-2.185-.364-2.549-.82-2.549-3.55v-3.094H31.07c9.924 0 11.835.182 11.835 1.365 0 .728-.546 1.365-1.274 1.365-.729 0-1.457.455-1.639 1.092-.273.637-2.913.91-7.92.82-6.556-.183-7.557 0-7.102 1.183.364.819.273 1.365-.091 1.365-.364-.091-1.73-.364-3.096-.546Zm63.913-1.274c0-.546-3.551-.82-8.376-.638-7.921.273-8.558.091-10.197-1.82-.91-1.183-1.548-2.184-1.366-2.366.182-.182 5.554-.546 12.018-.82l11.562-.454v3.003c0 2.184-.455 3.095-1.82 3.459-1.002.273-1.821.09-1.821-.364Zm-54.626-13.47c0-.456-1.548-1.002-3.46-1.275-4.097-.728-7.101-2.64-6.19-4.096.363-.637 2.64-1.092 5.007-1.092 4.37 0 5.189.546 9.104 5.734 1.092 1.365.91 1.547-1.639 1.547-1.548 0-2.822-.364-2.822-.819Zm41.88-.638c4.46-5.552 4.916-5.825 8.74-5.825 2.276 0 4.279.546 4.916 1.365.91 1.093.455 1.639-3.278 3.277-2.458 1.092-6.1 2.184-8.102 2.457-3.46.455-3.551.364-2.276-1.274Zm-35.871-1.73c-1.184-4.186-1.457-4.095 17.662-4.095 19.028 0 19.847.182 17.116 3.914-1.001 1.183-3.733 1.456-17.753 1.73-15.933.272-16.57.181-17.025-1.548Z" fill="#B5B4B4"/><path d="M66.94 66.155c-.182-.273-1.548-.364-3.096-.091-2.276.364-2.731.091-2.731-1.456 0-2.367 2.185-2.913 13.474-2.913 8.74 0 9.378-.09 11.29-2.275 1.001-1.183 2.276-2.003 2.731-1.73.637.365 1.093 7.464.546 7.737-1.001.455-21.941 1.183-22.214.728Zm-47.707-2.184v-2.276H36.44c9.469 0 17.845.273 18.664.546.82.273 1.457 1.366 1.457 2.276 0 1.638-1.002 1.73-18.664 1.73H19.233V63.97Zm15.478-7.373c0-.91-.547-1.274-1.275-1-1.821.727-6.92-1.366-6.92-2.731 0-.728 1.184-1.183 3.187-1.183 2.458 0 3.824.728 5.918 3.003l2.731 2.913-.546-2.913-.546-3.003 13.93-.182c22.123-.274 21.121-.456 20.302 2.457-.455 1.73-1.184 1.82-15.477 1.547-12.473-.273-14.931-.09-14.931 1.001 0 .82-1.093 1.275-3.187 1.366-2.367.09-3.186-.273-3.186-1.275Zm39.33-3.094c1.73-2.276 2.64-2.64 5.645-2.457 2.003.09 3.732.637 3.915 1.183.364 1.183-4.006 3.003-8.65 3.64l-3.095.364 2.185-2.73Z" fill="#CECDCD"/><path d="M39.718 65.336c-.364-.546-4.825-.91-10.561-.91-9.287 0-9.924-.091-9.924-1.82 0-1.275.637-1.82 2.094-1.82 1.093-.092 15.842-.183 32.776-.274l30.863-.182 1.73-2.184c.91-1.184 1.73-1.73 1.821-1.366.728 5.552.546 6.645-1.366 7.1-1.001.273-6.1.546-11.198.546-5.098 0-9.469.364-9.742.819-.273.455-3.641.819-7.374.819-3.733 0-6.828-.364-6.828-.82 0-.454-2.003-.818-4.553-.818-2.458 0-4.552.455-4.552.91 0 .546-.546.91-1.274.91-.729 0-1.639-.364-1.912-.91Zm-8.012-8.738c-1.457-1.183-2.276-2.639-2.003-3.094 1.002-1.638 3.733-1.001 5.918 1.365 1.639 1.82 1.82 2.276.728 2.276-.82 0-1.638.364-1.82.819-.092.455-1.457-.091-2.823-1.366Z" fill="#DEDDDE"/><path d="M67.486 58.146c0-1.002-13.747-1.912-15.022-1.002-.455.364-3.915.456-7.466.182-6.281-.364-6.646-.546-6.646-2.548v-2.184H71.31l-.455 2.366-.365 2.275 2.368-2.275c2.549-2.457 6.464-3.185 6.464-1.183 0 1.183-3.642 3.913-4.734 3.55-.456-.092-.729.273-.729.728 0 .546-1.457.91-3.186.91-1.73 0-3.187-.364-3.187-.82Z" fill="#DEDDDE"/><path d="M19.233 61.695c0-1.092.546-2.457 1.093-3.094 1.001-1.001 1.274-1.001 2.094 0 .546.728 3.46 1.547 6.828 1.911l5.827.546-1.548-2.366c-.82-1.365-1.548-2.822-1.548-3.368 0-1.547 3.005-1.001 5.099 1.001l2.094 1.912-.547-1.912c-.455-1.82-.182-1.82 15.569-1.82 14.202-.09 16.023.091 16.023 1.456 0 1.366.091 1.366 1.64 0 .91-.91 2.548-1.547 3.64-1.547 2.095 0 2.641 1.274 1.093 2.276-.455.273-1.365 1.456-1.912 2.457-1.001 1.911-.91 1.911 4.735 1.365 4.46-.364 6.19-1.001 7.374-2.457.91-1.093 1.639-1.639 1.73-1.274.546 5.916.91 5.551-5.554 6.098-3.277.364-18.937.637-34.778.637-28.679 0-28.952 0-28.952-1.82Zm36.782-2.366c.637-1.73-.092-3.095-1.73-3.095-1.639 0-2.55 1.548-1.912 3.186.637 1.82 2.913 1.73 3.642-.091Zm-9.651-1.001c-.91-.182-2.367-.182-3.186 0-.91.273-.183.455 1.547.455s2.458-.182 1.639-.455Zm18.209 0c-.91-.182-2.55-.182-3.642 0-1.184.182-.455.364 1.548.364 2.003.09 2.913-.091 2.094-.364Z" fill="#F0F1F1"/><path d="M19.233 57.873V54.05l2.094 3.004c2.003 2.912 2.55 3.094 7.739 3.458 5.553.364 6.646-.182 4.643-2.184-1.912-1.912 0-3.004 2.64-1.547 2.185 1.092 2.458 1.092 2.732-.091.273-1.002 1.638-1.366 5.462-1.366 5.827 0 7.102.546 7.557 3.186.637 2.912 3.915 2.366 4.279-.637.273-2.549.364-2.549 7.101-2.549 6.1 0 8.558.91 5.645 2.094-.729.364-.638.546.273.546.82.09 1.73-.546 2.094-1.274.546-1.548 1.365-1.73 3.004-.638.91.638.91 1.275 0 3.186l-1.092 2.457h-54.17v-3.822Zm61.818 2.821c2.276-.455 4.462-1.183 5.008-1.73 1.274-1.273 2.367-1.091 2.367.365 0 1.73-2.094 2.366-7.101 2.275l-4.28-.09 4.006-.82Z" fill="#FEFEFE"/></g><path d="M140.542 74.18c-.267 0-.494-.08-.68-.24a.973.973 0 0 1-.28-.72V47.18c0-.293.093-.533.28-.72a.924.924 0 0 1 .68-.28h3.64c.293 0 .52.093.68.28.186.187.28.427.28.72V57.5h11.8V47.18c0-.293.093-.533.28-.72a.924.924 0 0 1 .68-.28h3.6c.293 0 .533.093.72.28.186.187.28.427.28.72v26.04a.929.929 0 0 1-.28.68.976.976 0 0 1-.72.28h-3.6a.924.924 0 0 1-.68-.28.925.925 0 0 1-.28-.68V62.5h-11.8v10.72a.929.929 0 0 1-.28.68c-.16.187-.387.28-.68.28h-3.64Zm29.54 0a.928.928 0 0 1-.68-.28.929.929 0 0 1-.28-.68V47.18c0-.293.094-.533.28-.72a.927.927 0 0 1 .68-.28h17.6c.294 0 .534.093.72.28.187.187.28.427.28.72v2.64a.925.925 0 0 1-.28.68.973.973 0 0 1-.72.28h-13.16v7.08h12.28c.294 0 .534.093.72.28.187.16.28.387.28.68v2.48a.973.973 0 0 1-.28.72c-.186.16-.426.24-.72.24h-12.28v7.32h13.48c.294 0 .534.093.72.28.187.187.28.427.28.72v2.64a.925.925 0 0 1-.28.68.973.973 0 0 1-.72.28h-17.92Z" fill="#FF9128"/><path d="M195.696 74.18a.976.976 0 0 1-.72-.28.973.973 0 0 1-.28-.72v-26c0-.293.093-.533.28-.72a.976.976 0 0 1 .72-.28h11.2c2.213 0 4.133.347 5.76 1.04 1.653.667 2.933 1.68 3.84 3.04.933 1.36 1.4 3.08 1.4 5.16 0 2.053-.467 3.747-1.4 5.08-.907 1.333-2.187 2.32-3.84 2.96-1.627.64-3.547.96-5.76.96h-4.76v8.76a.914.914 0 0 1-.32.72.976.976 0 0 1-.72.28h-5.4Zm6.32-15.28h4.68c1.147 0 2.053-.293 2.72-.88.693-.587 1.04-1.48 1.04-2.68 0-1.013-.293-1.867-.88-2.56-.587-.693-1.547-1.04-2.88-1.04h-4.68v7.16Zm19.151 15.28c-.266 0-.493-.08-.68-.24a1.01 1.01 0 0 1-.24-.68c0-.187.04-.333.12-.44l8.16-13.16-7.44-12.16a.865.865 0 0 1-.16-.48c0-.213.08-.4.24-.56.16-.187.36-.28.6-.28h5.76c.4 0 .72.08.96.24.24.133.414.307.52.52l5.92 9.92h2.32v-9.68c0-.293.094-.533.28-.72a.976.976 0 0 1 .72-.28h4.92c.294 0 .534.093.72.28.187.187.28.427.28.72v9.68h2.28l5.92-9.92c.134-.213.32-.387.56-.52.24-.16.547-.24.92-.24h5.76a.8.8 0 0 1 .64.28c.16.16.24.347.24.56 0 .16-.053.32-.16.48l-7.44 12.16 8.16 13.16c.08.107.12.253.12.44a.925.925 0 0 1-.28.68c-.16.16-.373.24-.64.24h-5.96c-.4 0-.706-.093-.92-.28a6.312 6.312 0 0 1-.44-.48l-6.2-10.2h-2.56v9.96a.973.973 0 0 1-.28.72.973.973 0 0 1-.72.28h-4.92a.976.976 0 0 1-.72-.28.977.977 0 0 1-.28-.72v-9.96h-2.6l-6.16 10.2a3.923 3.923 0 0 1-.48.48c-.186.187-.493.28-.92.28h-5.92Zm42.534 0a.904.904 0 0 1-.6-.24.907.907 0 0 1-.24-.6c0-.133.013-.253.04-.36l9.4-25.68c.08-.293.24-.547.48-.76.266-.24.626-.36 1.08-.36h5.92c.453 0 .8.12 1.04.36.266.213.44.467.52.76l9.36 25.68a.8.8 0 0 1 .08.36c0 .213-.094.413-.28.6-.16.16-.36.24-.6.24h-4.92c-.4 0-.707-.093-.92-.28-.187-.213-.307-.4-.36-.56l-1.56-4.08h-10.68l-1.52 4.08c-.054.16-.174.347-.36.56-.187.187-.507.28-.96.28h-4.92Zm9.4-10.68h7.44l-3.76-10.56-3.68 10.56Zm22.232 10.68a.976.976 0 0 1-.72-.28.977.977 0 0 1-.28-.72v-26c0-.293.094-.533.28-.72a.976.976 0 0 1 .72-.28h12.2c2.294 0 4.174.32 5.64.96 1.467.64 2.547 1.56 3.24 2.76.72 1.173 1.08 2.573 1.08 4.2 0 .96-.186 1.813-.56 2.56a5.709 5.709 0 0 1-1.32 1.8c-.506.48-.986.827-1.44 1.04 1.014.48 1.907 1.267 2.68 2.36.8 1.093 1.2 2.373 1.2 3.84 0 1.76-.4 3.28-1.2 4.56-.773 1.253-1.92 2.227-3.44 2.92-1.493.667-3.333 1-5.52 1h-12.56Zm6.16-5.2h5.6c1.147 0 2.014-.333 2.6-1 .587-.667.88-1.427.88-2.28 0-.933-.306-1.72-.92-2.36-.586-.64-1.44-.96-2.56-.96h-5.6v6.6Zm0-11.68h5.24c1.094 0 1.907-.28 2.44-.84.56-.56.84-1.28.84-2.16 0-.853-.28-1.547-.84-2.08-.533-.56-1.346-.84-2.44-.84h-5.24v5.92Zm22.405 16.88a.973.973 0 0 1-.72-.28.973.973 0 0 1-.28-.72v-26c0-.293.093-.533.28-.72a.972.972 0 0 1 .72-.28h18.68c.293 0 .533.093.72.28.186.187.28.427.28.72v3.76a.977.977 0 0 1-.28.72.976.976 0 0 1-.72.28h-12.76v5.4h11.88c.293 0 .533.107.72.32.186.187.28.427.28.72v3.48c0 .267-.094.507-.28.72a.976.976 0 0 1-.72.28h-11.88v5.56h13.08c.293 0 .533.093.72.28.186.187.28.427.28.72v3.76a.977.977 0 0 1-.28.72.976.976 0 0 1-.72.28h-19Zm25.946 0a.976.976 0 0 1-.72-.28 1.069 1.069 0 0 1-.28-.72v-26c0-.293.094-.533.28-.72.214-.187.454-.28.72-.28h5.16c.294 0 .534.093.72.28.187.187.28.427.28.72V63.3l11.4-16.36c.134-.213.307-.387.52-.52.214-.16.494-.24.84-.24h4.64c.267 0 .494.093.68.28a.91.91 0 0 1 .32.72v26a.911.911 0 0 1-.32.72.924.924 0 0 1-.68.28h-5.16c-.293 0-.546-.093-.76-.28a.977.977 0 0 1-.28-.72V57.66l-11.36 15.76a2.38 2.38 0 0 1-.52.52c-.186.16-.466.24-.84.24h-4.64Zm11.92-29.64c-1.706 0-3.08-.253-4.12-.76-1.04-.533-1.8-1.227-2.28-2.08-.48-.88-.72-1.84-.72-2.88 0-.213.067-.387.2-.52.134-.16.32-.24.56-.24h3.2c.24 0 .427.08.56.24a.7.7 0 0 1 .2.52c0 .347.067.693.2 1.04.134.32.374.587.72.8.347.187.84.28 1.48.28s1.12-.093 1.44-.28c.347-.213.587-.48.72-.8.134-.347.2-.693.2-1.04 0-.213.067-.387.2-.52.134-.16.32-.24.56-.24h3.2c.24 0 .427.08.56.24a.7.7 0 0 1 .2.52c0 1.04-.24 2-.72 2.88-.453.853-1.2 1.547-2.24 2.08-1.04.507-2.413.76-4.12.76Zm18.976 20.52a.976.976 0 0 1-.72-.28.973.973 0 0 1-.28-.72V60.3c0-.293.093-.533.28-.72a.976.976 0 0 1 .72-.28h12.52c.293 0 .533.093.72.28.187.187.28.427.28.72v3.76a.973.973 0 0 1-.28.72.976.976 0 0 1-.72.28h-12.52Zm19.865 9.12a.976.976 0 0 1-.72-.28.977.977 0 0 1-.28-.72v-26c0-.293.094-.533.28-.72a.976.976 0 0 1 .72-.28h5.16c.294 0 .534.093.72.28.187.187.28.427.28.72v9.64h2.44l5.92-9.88c.134-.213.32-.387.56-.52.24-.16.547-.24.92-.24h5.76a.8.8 0 0 1 .64.28c.16.16.24.347.24.56 0 .16-.053.32-.16.48l-7.44 12.16 8.16 13.16c.08.107.12.253.12.44a.925.925 0 0 1-.28.68c-.16.16-.373.24-.64.24h-5.92c-.426 0-.746-.093-.96-.28a6.312 6.312 0 0 1-.44-.48l-6.2-10.2h-2.72v9.96a.973.973 0 0 1-.28.72.973.973 0 0 1-.72.28h-5.16Zm25.847 0a.908.908 0 0 1-.6-.24.907.907 0 0 1-.24-.6c0-.133.014-.253.04-.36l9.4-25.68c.08-.293.24-.547.48-.76.267-.24.627-.36 1.08-.36h5.92c.454 0 .8.12 1.04.36.267.213.44.467.52.76l9.36 25.68c.054.107.08.227.08.36 0 .213-.093.413-.28.6-.16.16-.36.24-.6.24h-4.92c-.4 0-.706-.093-.92-.28-.186-.213-.306-.4-.36-.56l-1.56-4.08h-10.68l-1.52 4.08c-.053.16-.173.347-.36.56-.186.187-.506.28-.96.28h-4.92Zm9.4-10.68h7.44l-3.76-10.56-3.68 10.56Z" fill="url(#b)"/><path d="M137.885 96.38v-4.6l8-.2v-3h-7.6v-1.6h7.6l1.8 1.8v9.4h-8l-1.8-1.8Zm1.8-3v3.2h6.2v-3.6l-6.2.4Zm11.192 4.8v-11.2h1.8v4.8h6.4v-4.8h1.8v11.2h-1.8v-4.8h-6.4v4.8h-1.8Zm18.503 0h-1.8v-9.6h-4.3v-1.6h10.4v1.6h-4.3v9.6Zm17.291 0h-1.8v-9.34l-6.44 9.34h-2.36v-11.2h1.8v9.34l6.44-9.34h2.36v11.2Zm3.208 0v-11.2h1.8v4.58h3.88l3.08-4.58h2.08l-3.54 5.16 3.7 6.04h-2.04l-3.02-5.02h-4.14v5.02h-1.8Zm12.711-1.8v-7.6l1.8-1.8h6.2l1.8 1.8v7.6l-1.8 1.8h-6.2l-1.8-1.8Zm1.8.2h6.2v-8h-6.2v8Zm11.093 4.4v-14h8.3l1.8 1.8v7.6l-1.8 1.8h-6.5v2.8h-1.8Zm8.3-12.4h-6.5v8h6.5v-8Zm4.902 12.4v-14h8.3l1.8 1.8v7.6l-1.8 1.8h-6.5v2.8h-1.8Zm8.3-12.4h-6.5v8h6.5v-8Zm4.802 7.8v-7.6l1.8-1.8h6.2l1.8 1.8v7.6l-1.8 1.8h-6.2l-1.8-1.8Zm1.8.2h6.2v-8h-6.2v8Zm20.593 0-1.6 1.6h-8.4v-1.6h8.2v-3.32h-7.2v-1.6h6.8v-3.08h-7.6v-1.6h7.8l1.6 1.6v2.9l-1.14.86 1.54 1.2v3.04Zm13.696 1.6h-1.8v-9.34l-6.44 9.34h-2.36v-11.2h1.8v9.34l6.44-9.34h2.36v11.2Zm13.808 0h-1.8v-9.34l-6.44 9.34h-2.36v-11.2h1.8v9.34l6.44-9.34h2.36v11.2Zm-3.14-15h1.84l-1.4 2.4h-5.2l-1.4-2.4h1.84l.66 1.1h3l.66-1.1Zm6.348 15v-11.2h1.8v4.8h6.4v-4.8h1.8v11.2h-1.8v-4.8h-6.4v4.8h-1.8Zm13.002-1.8v-4.6l8-.2v-3h-7.6v-1.6h7.6l1.8 1.8v9.4h-8l-1.8-1.8Zm1.8-3v3.2h6.2v-3.6l-6.2.4Zm13.093-.4h5.9v-4.4h-5.9v4.4Zm-1.8.2v-4.6l1.6-1.6h7.9v11.2h-1.8v-3.6h-4.98l-1.78 3.6h-1.94l2.06-3.94-1.06-1.06Zm18.587 3.2v-7.6l1.8-1.8h6.2l1.8 1.8v7.6l-1.8 1.8h-6.2l-1.8-1.8Zm1.8.2h6.2v-8h-6.2v8Zm12.892 0h6.5v-7h-6.5v7Zm0 1.6-1.8-1.8v-10.4l1.8-1.8h8v1.6h-8v2.2h6.7l1.6 1.6v6.8l-1.8 1.8h-6.5Zm11.403 2.8v-14h8.3l1.8 1.8v7.6l-1.8 1.8h-6.5v2.8h-1.8Zm8.3-12.4h-6.5v8h6.5v-8Zm4.702 7.8v-4.6l8-.2v-3h-7.6v-1.6h7.6l1.8 1.8v9.4h-8l-1.8-1.8Zm1.8-3v3.2h6.2v-3.6l-6.2.4Zm12.992 3.2h6.5v-7h-6.5v7Zm0 1.6-1.8-1.8v-10.4l1.8-1.8h8v1.6h-8v2.2h6.7l1.6 1.6v6.8l-1.8 1.8h-6.5Zm11.302-1.8v-7.6l1.8-1.8h6.2l1.8 1.8v7.6l-1.8 1.8h-6.2l-1.8-1.8Zm1.8.2h6.2v-8h-6.2v8Zm16.393 1.6h-1.8v-9.6h-4.3v-1.6h10.4v1.6h-4.3v9.6Zm6.691 0v-11.2h1.8v4.58h3.88l3.08-4.58h2.08l-3.54 5.16 3.7 6.04h-2.04l-3.02-5.02h-4.14v5.02h-1.8Zm13.002-1.8v-4.6l8-.2v-3h-7.6v-1.6h7.6l1.8 1.8v9.4h-8l-1.8-1.8Zm1.8-3v3.2h6.2v-3.6l-6.2.4Z" fill="#FF9128"/><defs><linearGradient id="b" x1="323.026" y1="46.18" x2="323.022" y2="74.18" gradientUnits="userSpaceOnUse"><stop stop-color="#757575"/><stop offset=".5" stop-color="#fff"/><stop offset="1" stop-color="#757575"/></linearGradient><clipPath id="a"><path fill="#fff" transform="translate(11.16 11.364)" d="M0 0h86.166v97.085H0z"/></clipPath></defs></svg>