<svg width="184" height="204" fill="none" xmlns="http://www.w3.org/2000/svg"><path d="M92.31 1c.201 0 .43.042.625.083.216.046.477.111.773.192.594.163 1.373.4 2.307.702 1.869.603 4.397 1.473 7.398 2.55 6.003 2.155 13.925 5.143 22.311 8.479h.001l30.258 11.783.38.148.168.372 2.948 6.511.003.006c2.982 6.703 10.206 13.19 17.885 15.898h-.001c2.198.757 3.798 1.428 4.691 2.88.443.721.668 1.56.792 2.538.122.971.151 2.151.151 3.586 0 5.367-1.139 14.163-2.79 23.147-1.653 8.995-3.836 18.27-5.951 24.612v.001c-9.052 26.977-27.144 55.186-47.756 74.064l-.001-.001c-5.395 5.076-13.029 11.147-19.7 15.947-3.339 2.402-6.451 4.497-8.934 5.996-1.24.749-2.338 1.358-3.238 1.784-.45.213-.865.387-1.233.51-.352.117-.732.212-1.087.212a1.69 1.69 0 0 1-.546-.107 4.766 4.766 0 0 1-.44-.186 17.338 17.338 0 0 1-1.118-.598 84.673 84.673 0 0 1-3.38-2.077c-2.71-1.733-6.25-4.104-9.978-6.665l-.016-.012c-36.827-26.349-61.644-64.71-70.383-109.457v-.001c-1.394-6.964-3.251-15.162-4.022-18.244C1.635 62.49 1 57.757 1 55.18c0-2.02.173-3.598 1.345-4.82.561-.587 1.297-1.033 2.191-1.434.894-.401 2.009-.784 3.371-1.212l.012-.004.01-.003c7.787-2.244 14.848-8.399 18.141-15.729.653-1.495 1.226-2.77 2.203-3.954.986-1.197 2.336-2.243 4.47-3.428 4.223-2.346 11.831-5.4 26.611-11.277a885.726 885.726 0 0 1 21.957-8.573 334.256 334.256 0 0 1 7.305-2.648 77.692 77.692 0 0 1 2.272-.755c.542-.168 1.024-.304 1.312-.336L92.255 1h.056ZM63.966 18.746 34.677 30.083l-3.395 6.49-.004.008c-2.318 4.325-3.818 6.898-5.878 8.956s-4.634 3.556-8.962 5.872l-.007.003c-2.191 1.152-3.744 2.16-4.826 3.373-1.052 1.18-1.71 2.616-1.979 4.726-.274 2.144-.143 4.961.392 8.867.533 3.897 1.458 8.812 2.738 15.129l.316 1.527c6.656 31.482 20.417 57.491 42.42 80.581l1.072 1.115v.001c6.48 6.706 14.513 13.768 21.444 19.15 3.466 2.691 6.64 4.95 9.196 6.531 1.28.791 2.386 1.402 3.285 1.811.937.426 1.528.576 1.822.576.172 0 .647-.11 1.478-.445.782-.314 1.758-.778 2.866-1.36 2.214-1.163 4.898-2.771 7.509-4.536 6.83-4.678 15.583-12.417 23.726-20.668 8.146-8.255 15.618-16.96 19.91-23.545 15.284-23.601 25.926-53.213 28.083-77.991l.877-10.372-8.604-4.953-.016-.01-.016-.01c-6.772-4.248-10.174-7.464-13.383-13.394l-.004-.007-3.862-7.272L122.048 18.9l-.004-.002L93.236 7.416l-29.271 11.33Z" fill="#FF9128" stroke="#FF9128" stroke-width="2"/><g clip-path="url(#a)"><path d="M38.666 129.403c-8.487-14.963-14.197-30.544-14.197-38.874 0-4.165-.926-7.405-2.315-8.639-3.086-2.622-2.931-12.958.155-15.58 1.389-1.234 6.172-2.16 10.493-2.314 7.252-.309 8.333-.926 14.042-7.25l6.172-6.943 16.666-1.08c9.259-.617 26.696-.617 38.886 0l22.221 1.08 5.864 7.56c5.709 7.25 6.018 7.404 14.505 7.558 4.629 0 9.259.771 10.339 1.851 3.086 3.086 2.314 12.804-1.389 16.044-2.623 2.314-3.086 4.01-2.315 8.638 1.08 6.788-5.864 26.225-14.659 40.572l-5.092 8.484h-9.722c-9.413 0-9.722-.154-9.722-3.856v-3.857H90.977c-27.622 0-27.776 0-28.239 3.548-.463 2.931-1.543 3.394-8.95 3.857l-8.641.463-6.481-11.262Zm23.455-17.431c2.315-3.394 3.549-3.857 12.19-3.857h9.568V91.917h15.43v8.176l-.154 8.022h9.568c8.487 0 9.875.463 12.036 3.857 2.314 3.702 3.24 3.856 10.647 3.085 13.117-1.543 14.968-2.16 14.968-5.245 0-2.623-1.08-2.777-13.116-2.006-12.654.772-13.116.618-13.116-2.622 0-2.16-.926-3.24-3.087-3.24-3.857 0-4.166-6.633-.926-14.655l2.315-5.399H64.436l2.468 4.628c1.235 2.468 2.315 6.942 2.315 10.027 0 4.32-.617 5.399-3.086 5.399-2.16 0-3.086 1.08-3.086 3.24 0 3.24-.463 3.394-13.117 2.622-12.962-.925-13.116-.771-13.116 2.623 0 4.011 2.16 4.782 14.814 5.245 6.944.154 8.333-.309 10.493-3.702Z" fill="#100624"/><path d="M84.138 179.078c-11.264-8.176-26.232-23.14-34.102-33.63l-6.944-9.255 7.407-.772c6.326-.617 7.715-1.388 8.024-4.165.463-3.394 1.234-3.548 12.808-3.548 10.03 0 12.19.463 12.19 2.314 0 2.777-4.32 11.878-6.326 13.112-.618.463-2.624 4.474-4.321 8.948l-3.24 8.021h43.36l-.925-3.393c-.618-2.006-3.087-8.331-5.556-14.193-6.172-14.5-6.018-14.809 3.858-14.809 4.63 0 9.413-.463 10.802-.926 1.852-.771 2.469.155 2.469 3.703 0 4.782.154 4.782 8.641 5.245l8.642.463-5.864 7.713c-10.339 13.883-30.862 33.475-41.664 39.8-.926.617-5.092-1.543-9.259-4.628Zm-51.076-76.823c0-5.862.308-8.176.617-4.937.309 3.085.309 8.022 0 10.799-.309 2.622-.617.154-.617-5.862Zm117.121 6.016c-.154-1.851-.771-5.708-1.234-8.485-.617-4.32-.463-4.782.926-2.468.926 1.389 1.388 5.245 1.08 8.485-.309 3.085-.617 4.165-.772 2.468Zm-124.22-9.873c-1.543-5.553-3.24-11.261-3.549-12.65-.617-2.314.155-2.776 4.784-2.776 4.166 0 5.246.462 4.32 2.005-.617.926-1.543 6.788-2.005 12.65l-.772 10.798-2.777-10.027Zm127.769-1.08c-.617-4.936-1.697-10.181-2.469-11.57-1.388-2.468-.771-2.776 4.784-2.776 3.395 0 6.172.617 6.172 1.388 0 2.005-6.172 21.751-6.789 21.751-.309 0-1.08-4.011-1.698-8.793Zm3.858-21.288c2.778-3.394-.617-6.942-6.789-6.942-4.013 0-7.253-2.468-20.832-16.198-8.796-8.947-16.666-16.197-17.283-16.197-.617 0-2.006 3.856-3.086 8.638-1.698 7.56-2.315 8.485-5.093 7.713-1.851-.462-9.258-.925-16.51-.925H74.88l-2.006-7.713c-1.08-4.165-2.778-7.713-3.704-7.713-1.08 0-8.95 7.096-17.591 15.734-8.641 8.64-17.283 15.89-19.135 16.198-4.629.771-7.87 3.548-6.944 6.17.463 1.235-.308 2.006-2.006 2.006-2.006 0-3.086-1.543-3.857-5.708-1.39-8.793-1.39-8.793 5.71-13.883 3.703-2.469 8.795-7.868 11.264-11.724 4.32-6.634 5.246-7.25 29.164-16.66 13.58-5.246 25.77-9.565 27.005-9.565 1.234.154 13.116 4.473 26.233 9.564 22.683 8.947 24.072 9.719 27.467 15.58 1.852 3.395 6.944 8.794 11.264 12.033 7.253 5.4 7.716 6.017 6.944 11.107-.462 2.931-.925 6.634-.925 8.176 0 1.851-1.235 2.623-4.012 2.623-3.395 0-3.858-.309-2.161-2.314Z" fill="#FF9F44"/><path d="m66.856 164.268-3.55-3.702 4.167-11.107c2.16-6.016 4.784-10.953 5.555-10.953.772 0 .926-.617.463-1.543-.463-.771-.154-1.542.772-1.542.925 0 1.234-.617.771-1.543-.463-.771-.154-1.542.772-1.542s1.389-.618.926-1.389c-.926-1.234 2.314-3.239 5.4-3.239 2.47 0 1.39 6.17-2.469 13.729l-3.703 7.559 5.71.926c6.48 1.079 26.541 1.234 26.541.308 0-.308-1.389-3.856-3.086-7.867-3.704-8.639-4.012-14.655-.772-14.655 2.315 0 8.333 11.878 11.728 23.293 1.08 3.24 2.777 6.017 4.012 6.017 3.086 0 2.469 2.159-2.161 6.479-3.24 2.931-5.092 3.702-7.406 2.777-4.475-1.852-36.88-1.852-38.732 0-1.08 1.079-2.624.462-4.938-2.006Zm84.408-78.674c-1.389-2.468-.772-3.703 3.549-7.405 8.178-6.942 10.03-6.016 8.024 4.474-.772 3.702-1.852 4.782-5.555 5.245-3.241.617-4.938 0-6.018-2.314Zm-128.541.771c-1.697-2.931-2.778-14.192-1.389-14.192.926 0 4.012 2.314 6.944 5.09 4.63 4.32 5.247 5.554 3.55 7.714-2.007 2.776-7.716 3.548-9.105 1.388ZM36.92 69.088c-2.47-.772-4.321-.772-4.476-.31 0 .618-.617-.153-1.234-1.85-.926-2.16 2.623-6.325 16.82-20.209 9.876-9.564 19.443-18.049 21.14-19.128 3.087-1.543 3.55-1.08 6.327 6.479 1.698 4.319 3.55 10.181 4.012 12.803.926 4.166.617 4.937-2.469 5.863-5.71 1.388-7.407 1.08-7.407-1.697 0-2.314-.154-2.314-2.777 0-1.543 1.542-4.167 2.622-5.864 2.622-1.852 0-5.864 3.394-9.876 8.485-7.407 8.793-7.561 8.947-14.197 6.942Zm96.135-6.942c-5.092-6.325-7.87-8.485-10.648-8.485-2.16 0-5.555-1.543-7.561-3.394l-3.703-3.394-.926 3.394c-.772 3.394-5.71 4.782-7.253 2.16-1.543-2.468 5.864-26.533 8.179-26.533.617 0 9.721 8.793 20.369 19.437 26.078 26.379 23.918 23.757 18.826 23.757-2.315 0-5.71.462-7.407.925-2.315.617-4.63-1.234-9.876-7.867Z" fill="#FFAD5E"/><path d="M51.116 120.457c-16.666-1.234-19.597-2.776-14.814-7.559 1.543-1.542 6.018-2.159 14.66-2.159 7.252 0 12.499-.617 12.499-1.543 0-.771 2.469-1.543 5.4-1.543 3.704 0 5.402.772 5.402 2.314 0 1.235-.926 2.314-2.16 2.314-1.235 0-3.704 2.16-5.556 4.628-1.852 2.623-4.475 4.474-5.864 4.32-1.389-.155-5.71-.463-9.567-.772Zm65.582-4.165c-1.697-2.468-4.012-4.011-6.327-4.011-2.623 0-3.703-.925-3.703-3.085 0-2.468 1.08-3.085 5.401-3.085 3.703 0 5.4.771 5.4 2.314 0 1.697 3.241 2.314 16.512 2.622 13.888.463 16.665.926 17.128 2.931.617 3.394-1.543 4.011-17.9 5.245-13.733 1.08-13.888 1.08-16.511-2.931ZM60.375 99.94c0-2.005-1.08-3.085-3.087-3.085-2.16 0-3.086-1.08-3.086-3.702 0-2.931-1.08-3.857-5.246-4.628-2.778-.617-6.173-.617-7.562 0-1.388.463-3.549.308-4.938-.463-2.16-1.234-2.16-1.851.772-5.553 2.47-3.086 4.63-4.166 8.178-4.011 4.167 0 5.864 1.388 11.728 9.255 3.704 5.091 6.944 8.948 7.253 8.64.308-.31-1.08-4.474-3.24-9.41-2.161-4.783-3.859-9.102-3.859-9.41 0-.464 15.74-.772 34.875-.772 32.559 0 34.874.154 33.794 2.776-.618 1.389-1.544 3.857-1.852 5.4-.772 2.314-3.395 2.622-28.393 2.622-23.456 0-27.622.309-27.622 2.314 0 1.234.772 2.314 1.543 2.314.926 0 1.543 2.468 1.543 5.4 0 5.09-.308 5.399-5.4 5.399-4.321 0-5.401-.617-5.401-3.086Zm65.427-9.564c1.389-2.005 3.704-5.4 5.247-7.713 3.395-5.554 8.641-5.554 13.733-.154l3.858 4.319-7.87.463c-6.635.463-7.869.925-7.869 3.548 0 2.314-1.081 2.93-4.784 2.93-4.784 0-4.784 0-2.315-3.393Zm-96.29-6.325c0-2.93 2.47-4.782 3.704-2.777.463.772-.154 2.16-1.389 3.24-1.852 1.543-2.314 1.543-2.314-.463Z" fill="#959596"/><path d="M73.8 154.395c-6.79-.771-6.79-1.388.617-16.198 4.32-8.638 7.561-11.415 7.561-6.633 0 1.851 2.006 2.314 9.259 2.314 8.333 0 9.258-.309 9.258-3.24 0-2.468.772-3.085 3.55-2.622 1.851.308 3.24 1.388 3.086 2.468-.309.926.308 1.851 1.389 1.851.925 0 1.388.463.925.926-.463.463.463 4.628 2.006 9.101 4.784 13.576 5.401 13.113-14.35 12.804-9.568-.154-20.06-.462-23.301-.771Zm77-69.419c-1.235-3.24 1.234-5.862 4.32-4.627 3.395 1.234 3.086 3.702-.463 5.553-2.314 1.234-3.086 1.08-3.857-.926ZM21.797 84.36c0-.462 1.389-2.16 2.932-3.548 2.469-2.16 3.55-2.314 6.327-.925 2.623 1.388 2.932 2.16 1.388 4.01-1.697 2.16-10.647 2.623-10.647.463Zm115.27-17.277c-1.697-4.474-1.389-6.633.617-4.628.926.925 1.389 2.93 1.08 4.474-.463 2.776-.617 2.776-1.697.154Zm-93.666-1.08c-1.852-1.234-1.852-1.543.462-2.468 3.241-1.234 5.401.308 3.241 2.468-.771.771-2.315.926-3.703 0Zm13.887-13.575c0-.617 3.704-4.782 8.179-9.256l8.333-8.176 2.469 6.633c3.394 8.793 3.24 9.873-.772 11.107-5.092 1.234-18.209 1.08-18.209-.308Zm47.219 0c-.462-.771.309-4.937 1.698-9.41l2.623-7.868 8.179 8.022c4.475 4.474 8.178 8.639 8.178 9.256 0 1.697-19.597 1.542-20.678 0Z" fill="#FFC182"/><path d="M75.806 137.889c0-.154.771-2.622 1.697-5.399l1.698-4.782H91.7c6.944 0 13.733.771 14.968 1.542 1.234.772 1.697 1.543.771 1.543-.771 0-.463.771.772 1.543 1.543.925 1.697 1.542.463 1.542-1.08 0-2.006 1.08-2.006 2.314 0 1.851-2.778 2.314-15.431 2.314-8.487 0-15.431-.308-15.431-.617Z" fill="#FFDFBD"/><path d="M36.92 118.915c-3.704-.617-4.321-1.388-4.321-6.016v-5.245h20.06c16.82 0 20.06.308 20.06 2.314 0 1.234-.925 2.314-2.16 2.314-1.234 0-2.469.771-2.778 1.851-.462 1.08-4.937 1.542-13.425 1.388-11.11-.308-12.807 0-12.036 2.006.617 1.388.463 2.313-.154 2.313-.617-.154-2.932-.617-5.247-.925Zm108.325-2.16c0-.925-6.018-1.388-14.196-1.08-13.425.463-14.505.155-17.283-3.085-1.543-2.005-2.623-3.702-2.315-4.011.309-.308 9.413-.925 20.369-1.388l19.598-.771v5.09c0 3.703-.772 5.245-3.086 5.862-1.698.463-3.087.155-3.087-.617Zm-92.586-22.83c0-.772-2.623-1.698-5.864-2.16-6.944-1.235-12.036-4.474-10.493-6.942.617-1.08 4.475-1.851 8.487-1.851 7.407 0 8.796.925 15.431 9.718 1.852 2.314 1.543 2.623-2.777 2.623-2.624 0-4.784-.618-4.784-1.389Zm70.983-1.08c7.561-9.41 8.333-9.873 14.814-9.873 3.857 0 7.252.925 8.332 2.313 1.544 1.852.772 2.777-5.555 5.554-4.166 1.851-10.339 3.702-13.733 4.165-5.864.771-6.018.617-3.858-2.16Zm-60.798-2.932c-2.007-7.096-2.47-6.941 29.936-6.941 32.251 0 33.639.308 29.01 6.633-1.697 2.005-6.327 2.468-30.09 2.93-27.005.464-28.085.31-28.856-2.622Z" fill="#B5B4B4"/><path d="M113.457 112.127c-.308-.463-2.623-.617-5.246-.154-3.858.617-4.629.154-4.629-2.468 0-4.011 3.703-4.937 22.837-4.937 14.814 0 15.894-.154 19.135-3.856 1.697-2.006 3.858-3.394 4.629-2.931 1.08.616 1.852 12.649.926 13.112-1.697.771-37.189 2.005-37.652 1.234Zm-80.858-3.702v-3.857h29.164c16.049 0 30.245.463 31.634.926 1.389.462 2.469 2.314 2.469 3.856 0 2.777-1.697 2.931-31.634 2.931H32.6v-3.856Zm26.233-12.496c0-1.542-.926-2.16-2.16-1.697-3.087 1.234-11.728-2.314-11.728-4.627 0-1.235 2.006-2.006 5.4-2.006 4.167 0 6.481 1.234 10.03 5.09l4.63 4.937-.926-4.936-.926-5.09 23.61-.31c37.497-.462 35.8-.77 34.411 4.166-.772 2.93-2.006 3.085-26.233 2.622-21.14-.463-25.307-.154-25.307 1.697 0 1.388-1.852 2.16-5.4 2.314-4.013.154-5.402-.463-5.402-2.16Zm66.662-5.245c2.931-3.856 4.475-4.473 9.567-4.165 3.395.154 6.327 1.08 6.635 2.006.617 2.005-6.789 5.09-14.659 6.17l-5.247.617 3.704-4.628Z" fill="#CECDCD"/><path d="M67.319 110.739c-.618-.926-8.179-1.543-17.9-1.543-15.74 0-16.82-.154-16.82-3.085 0-2.16 1.08-3.085 3.549-3.085 1.852-.155 26.85-.309 55.552-.463l52.311-.309 2.932-3.702c1.543-2.006 2.932-2.931 3.086-2.314 1.234 9.41.926 11.261-2.315 12.033-1.697.462-10.339.925-18.98.925s-16.048.617-16.511 1.388c-.463.772-6.173 1.389-12.5 1.389-6.326 0-11.573-.617-11.573-1.389 0-.771-3.394-1.388-7.715-1.388-4.166 0-7.716.771-7.716 1.543 0 .925-.925 1.542-2.16 1.542-1.234 0-2.778-.617-3.24-1.542Zm-13.58-14.81c-2.469-2.005-3.857-4.473-3.395-5.245 1.698-2.776 6.327-1.696 10.03 2.314 2.778 3.086 3.087 3.857 1.235 3.857-1.389 0-2.778.617-3.086 1.388-.154.772-2.47-.154-4.784-2.313Z" fill="#DEDDDE"/><path d="M114.383 98.552c0-1.697-23.3-3.24-25.461-1.697-.772.617-6.635.771-12.653.308-10.648-.617-11.265-.925-11.265-4.319v-3.702h55.86l-.771 4.01-.618 3.857 4.013-3.856c4.32-4.166 10.956-5.4 10.956-2.006 0 2.006-6.173 6.633-8.025 6.016-.771-.154-1.234.463-1.234 1.234 0 .926-2.469 1.543-5.401 1.543s-5.401-.617-5.401-1.388Z" fill="#DEDDDE"/><path d="M32.599 104.568c0-1.851.926-4.165 1.852-5.245 1.697-1.697 2.16-1.697 3.549 0 .925 1.234 5.863 2.623 11.573 3.24l9.876.925-2.623-4.01c-1.39-2.314-2.624-4.783-2.624-5.708 0-2.623 5.092-1.697 8.642 1.697l3.549 3.24-.926-3.24c-.772-3.086-.309-3.086 26.387-3.086 24.072-.154 27.159.155 27.159 2.469s.154 2.314 2.777 0c1.543-1.543 4.321-2.623 6.173-2.623 3.549 0 4.475 2.16 1.851 3.857-.771.462-2.314 2.468-3.24 4.165-1.698 3.239-1.543 3.239 8.024 2.314 7.561-.617 10.493-1.697 12.499-4.165 1.543-1.852 2.778-2.777 2.932-2.16.926 10.027 1.543 9.41-9.413 10.336-5.555.617-32.097 1.079-58.947 1.079-48.607 0-49.07 0-49.07-3.085Zm62.341-4.011c1.08-2.93-.154-5.245-2.932-5.245-2.777 0-4.32 2.623-3.24 5.4 1.08 3.085 4.938 2.931 6.172-.155ZM78.583 98.86c-1.543-.308-4.012-.308-5.4 0-1.544.463-.31.772 2.623.772 2.931 0 4.166-.309 2.777-.772Zm30.862 0c-1.543-.308-4.32-.308-6.172 0-2.006.309-.772.617 2.623.617 3.395.155 4.938-.154 3.549-.617Z" fill="#F0F1F1"/><path d="M32.599 98.09v-6.48l3.549 5.09c3.395 4.937 4.32 5.246 13.116 5.863 9.413.617 11.265-.309 7.87-3.703-3.24-3.239 0-5.09 4.475-2.622 3.703 1.851 4.166 1.851 4.63-.154.462-1.697 2.777-2.314 9.258-2.314 9.876 0 12.036.925 12.808 5.399 1.08 4.936 6.635 4.011 7.252-1.08.463-4.32.618-4.32 12.037-4.32 10.338 0 14.505 1.543 9.567 3.549-1.235.617-1.08.925.463.925 1.389.155 2.932-.925 3.549-2.16.926-2.622 2.315-2.93 5.092-1.08 1.543 1.08 1.543 2.16 0 5.4l-1.852 4.165H32.599v-6.479Zm104.776 4.781c3.858-.771 7.562-2.005 8.488-2.93 2.16-2.16 4.012-1.852 4.012.616 0 2.931-3.55 4.011-12.037 3.857l-7.252-.154 6.789-1.389Z" fill="#FEFEFE"/></g><defs><clipPath id="a"><path fill="#fff" transform="translate(18.916 19.26)" d="M0 0h146.044v164.551H0z"/></clipPath></defs></svg>